<?xml version="1.0" encoding="utf-8"?>
<!-- Generator: Adobe Illustrator 27.5.0, SVG Export Plug-In . SVG Version: 6.00 Build 0)  -->
<svg version="1.1" xmlns="http://www.w3.org/2000/svg" xmlns:xlink="http://www.w3.org/1999/xlink" x="0px" y="0px"
	 viewBox="0 0 750 500" style="enable-background:new 0 0 750 500;" xml:space="preserve">
<g id="BACKGROUND">
</g>
<g id="OBJECTS">
	<g>
		<g>
			<g>
				<text transform="matrix(1 0 0 1 216.6018 52.9989)" style="fill:#606060; font-family:'Montserrat-SemiBold'; font-size:25px;">Process Infographic</text>
			</g>
		</g>
		<g>
			<g>
				<rect x="15.917" y="342.072" style="fill:none;" width="118.763" height="34.364"/>
				<text transform="matrix(1 0 0 1 28.3372 349.3478)"><tspan x="0" y="0" style="fill:#606060; font-family:'Montserrat-Regular'; font-size:9.8062px;">Lorem ipsum dolor</tspan><tspan x="-0.853" y="11.768" style="fill:#606060; font-family:'Montserrat-Regular'; font-size:9.8062px;">amet, consectetuer </tspan><tspan x="11.708" y="23.534" style="fill:#606060; font-family:'Montserrat-Regular'; font-size:9.8062px;">adipiscing elit.</tspan></text>
				<g>
					
						<text transform="matrix(1 0 0 1 31.2161 311.3127)" style="fill:#8F89AD; font-family:'Montserrat-ExtraBold'; font-size:17.1998px;">Your Title</text>
				</g>
				<g>
					
						<text transform="matrix(1 0 0 1 33.0925 328.6682)" style="fill:#8F89AD; font-family:'Montserrat-Regular'; font-size:13.0749px;">Subtitle here</text>
				</g>
			</g>
			<g>
				<rect x="165.99" y="342.072" style="fill:none;" width="118.763" height="34.364"/>
				<text transform="matrix(1 0 0 1 178.4099 349.3478)"><tspan x="0" y="0" style="fill:#606060; font-family:'Montserrat-Regular'; font-size:9.8062px;">Lorem ipsum dolor</tspan><tspan x="-0.853" y="11.768" style="fill:#606060; font-family:'Montserrat-Regular'; font-size:9.8062px;">amet, consectetuer </tspan><tspan x="11.708" y="23.534" style="fill:#606060; font-family:'Montserrat-Regular'; font-size:9.8062px;">adipiscing elit.</tspan></text>
				<g>
					
						<text transform="matrix(1 0 0 1 181.2898 311.3127)" style="fill:#FFD840; font-family:'Montserrat-ExtraBold'; font-size:17.1998px;">Your Title</text>
				</g>
				<g>
					
						<text transform="matrix(1 0 0 1 183.1663 328.6682)" style="fill:#FFD840; font-family:'Montserrat-Regular'; font-size:13.0749px;">Subtitle here</text>
				</g>
			</g>
			<g>
				<rect x="314.97" y="342.072" style="fill:none;" width="118.763" height="34.364"/>
				<text transform="matrix(1 0 0 1 327.3899 349.3478)"><tspan x="0" y="0" style="fill:#606060; font-family:'Montserrat-Regular'; font-size:9.8062px;">Lorem ipsum dolor</tspan><tspan x="-0.854" y="11.768" style="fill:#606060; font-family:'Montserrat-Regular'; font-size:9.8062px;">amet, consectetuer </tspan><tspan x="11.708" y="23.534" style="fill:#606060; font-family:'Montserrat-Regular'; font-size:9.8062px;">adipiscing elit.</tspan></text>
				<g>
					
						<text transform="matrix(1 0 0 1 330.2698 311.3127)" style="fill:#D70040; font-family:'Montserrat-ExtraBold'; font-size:17.1998px;">Your Title</text>
				</g>
				<g>
					
						<text transform="matrix(1 0 0 1 332.1458 328.6682)" style="fill:#D70040; font-family:'Montserrat-Regular'; font-size:13.0749px;">Subtitle here</text>
				</g>
			</g>
			<g>
				<rect x="465.075" y="342.072" style="fill:none;" width="118.763" height="34.364"/>
				<text transform="matrix(1 0 0 1 477.4944 349.3478)"><tspan x="0" y="0" style="fill:#606060; font-family:'Montserrat-Regular'; font-size:9.8062px;">Lorem ipsum dolor</tspan><tspan x="-0.853" y="11.768" style="fill:#606060; font-family:'Montserrat-Regular'; font-size:9.8062px;">amet, consectetuer </tspan><tspan x="11.709" y="23.534" style="fill:#606060; font-family:'Montserrat-Regular'; font-size:9.8062px;">adipiscing elit.</tspan></text>
				<g>
					
						<text transform="matrix(1 0 0 1 480.3743 311.3127)" style="fill:#2AC394; font-family:'Montserrat-ExtraBold'; font-size:17.1998px;">Your Title</text>
				</g>
				<g>
					
						<text transform="matrix(1 0 0 1 482.2502 328.6682)" style="fill:#2AC394; font-family:'Montserrat-Regular'; font-size:13.0749px;">Subtitle here</text>
				</g>
			</g>
			<g>
				<rect x="615.32" y="342.072" style="fill:none;" width="118.763" height="34.364"/>
				<text transform="matrix(1 0 0 1 627.7395 349.3478)"><tspan x="0" y="0" style="fill:#606060; font-family:'Montserrat-Regular'; font-size:9.8062px;">Lorem ipsum dolor</tspan><tspan x="-0.854" y="11.768" style="fill:#606060; font-family:'Montserrat-Regular'; font-size:9.8062px;">amet, consectetuer </tspan><tspan x="11.708" y="23.534" style="fill:#606060; font-family:'Montserrat-Regular'; font-size:9.8062px;">adipiscing elit.</tspan></text>
				
					<text transform="matrix(1 0 0 1 630.6194 311.3127)" style="fill:#3985FD; font-family:'Montserrat-ExtraBold'; font-size:17.1998px;">Your Title</text>
				
					<text transform="matrix(1 0 0 1 632.4954 328.6682)" style="fill:#3985FD; font-family:'Montserrat-Regular'; font-size:13.0749px;">Subtitle here</text>
			</g>
			<g>
				<g>
					<g>
						<path style="fill:#D70040;" d="M300.064,275.414c-21.581,0-42.306-9.157-56.861-25.125c-0.744-0.816,0.35-0.737,1.166-1.481
							c0.816-0.745,1.846-1.167,2.59-0.351c13.799,15.138,32.647,22.956,53.105,22.956c20.465,0,39.443-7.953,53.242-23.09
							c0.745-0.816,1.454-0.461,2.27,0.283c0.816,0.744,2.104,0.866,1.36,1.682C342.381,266.257,321.652,275.414,300.064,275.414z"
							/>
					</g>
					<g>
						<path style="fill:#FFD840;" d="M205.107,148.826c-0.543,0-1.369,0.14-1.764-0.293c-13.799-15.137-32.658-22.968-53.117-22.968
							c-20.465,0-39.267,7.765-53.066,22.903c-0.744,0.816-1.622,0.79-2.438,0.045c-0.816-0.744-2.112-1.007-1.368-1.823
							c14.555-15.967,35.284-25.125,56.872-25.125c21.581,0,42.306,9.157,56.861,25.125c0.744,0.816,0.183,0.871-0.634,1.615
							C206.07,148.654,205.588,148.826,205.107,148.826z"/>
					</g>
					<g>
						<path style="fill:#3985FD;" d="M750.006,125.564c-20.465,0-39.682,8.21-53.481,23.347c-0.745,0.816-1.428,0.314-2.246-0.432
							c-0.816-0.744-1.888-0.974-1.144-1.79c14.556-15.967,35.284-25.125,56.871-25.125V125.564z"/>
					</g>
					<g>
						<path style="fill:#3985FD;" d="M599.763,275.414c-21.592,0-42.317-9.158-56.861-25.125c-0.744-0.816,0.457-1.221,1.273-1.964
							c0.816-0.744,1.677-0.749,2.42,0.067c13.788,15.137,32.699,23.023,53.168,23.023c20.47,0,39.523-8.037,53.311-23.174
							c0.743-0.816,1.142-0.257,1.959,0.488c0.816,0.744,2.337,0.744,1.593,1.561C642.081,266.256,621.355,275.414,599.763,275.414z
							"/>
					</g>
					<g>
						<path style="fill:#2AC394;" d="M395.2,148.775c-0.481,0-0.963-0.172-1.346-0.521c-0.816-0.744-1.547-0.747-0.802-1.563
							c14.544-15.967,35.27-25.125,56.862-25.125c21.587,0,42.316,9.157,56.872,25.125c0.744,0.816-0.424,0.938-1.24,1.682
							c-0.816,0.745-1.757,0.981-2.503,0.164c-13.799-15.137-32.664-22.97-53.129-22.97c-20.47,0-39.374,7.878-53.162,23.015
							C396.358,149.013,395.744,148.775,395.2,148.775z"/>
					</g>
					<g>
						<g>
							<path style="fill:#8F89AD;" d="M0.005,275.414c21.581,0,42.306-9.157,56.861-25.125c0.744-0.816-0.01-1.16-0.826-1.904
								c-0.816-0.745-1.836-1.118-2.579-0.302c-13.799,15.138-32.997,23.331-53.456,23.331V275.414z"/>
						</g>
					</g>
				</g>
				
					<ellipse transform="matrix(0.7071 -0.7071 0.7071 0.7071 -118.2988 111.3804)" style="fill:none;stroke:#8F89AD;stroke-width:2;stroke-linecap:round;stroke-linejoin:round;stroke-miterlimit:10;" cx="75.299" cy="198.49" rx="54.091" ry="54.091"/>
				
					<ellipse transform="matrix(0.7071 -0.7071 0.7071 0.7071 -74.4097 217.3382)" style="fill:none;stroke:#FFD840;stroke-width:2;stroke-linecap:round;stroke-linejoin:round;stroke-miterlimit:10;" cx="225.146" cy="198.49" rx="54.091" ry="54.091"/>
				
					<ellipse transform="matrix(0.2245 -0.9745 0.9745 0.2245 97.3693 519.3366)" style="fill:none;stroke:#D70040;stroke-width:2;stroke-linecap:round;stroke-linejoin:round;stroke-miterlimit:10;" cx="374.993" cy="198.49" rx="54.091" ry="54.091"/>
				
					<ellipse transform="matrix(0.2245 -0.9745 0.9745 0.2245 213.5691 665.3571)" style="fill:none;stroke:#2AC394;stroke-width:2;stroke-linecap:round;stroke-linejoin:round;stroke-miterlimit:10;" cx="524.84" cy="198.49" rx="54.091" ry="54.091"/>
				
					<ellipse transform="matrix(0.1575 -0.9875 0.9875 0.1575 372.3935 833.4847)" style="fill:none;stroke:#3985FD;stroke-width:2;stroke-linecap:round;stroke-linejoin:round;stroke-miterlimit:10;" cx="674.686" cy="198.49" rx="54.091" ry="54.091"/>
			</g>
			<text transform="matrix(1 0 0 1 58.4212 236.0842)" style="fill:#8F89AD; font-family:'Montserrat-Bold'; font-size:21.7915px;">0%</text>
			<g>
				<g>
					<g>
						
							<path style="fill:none;stroke:#8F89AD;stroke-width:1.5;stroke-linecap:round;stroke-linejoin:round;stroke-miterlimit:10;" d="
							M84.146,162.756c-2.574-1.96-5.823-3.077-9.337-2.943c-7.508,0.287-13.698,6.539-13.915,14.049
							c-0.106,3.65,1.143,7,3.278,9.596c2.328,2.833,3.75,6.298,3.75,9.965v0.302h14.911v-0.309c0-3.595,1.3-7.058,3.621-9.803
							c2.128-2.517,3.413-5.767,3.413-9.322c0-2.659-0.716-5.15-1.966-7.292"/>
						
							<path style="fill:none;stroke:#8F89AD;stroke-width:1.5;stroke-linecap:round;stroke-linejoin:round;stroke-miterlimit:10;" d="
							M83.292,200.89H67.987c-1.225,0-2.227-1.002-2.227-2.227l0,0c0-1.225,1.002-2.227,2.227-2.227h15.306
							c1.225,0,2.227,1.002,2.227,2.227l0,0C85.52,199.888,84.517,200.89,83.292,200.89z"/>
						
							<path style="fill:none;stroke:#8F89AD;stroke-width:1.5;stroke-linecap:round;stroke-linejoin:round;stroke-miterlimit:10;" d="
							M81.91,203.6c-0.633,3.031-3.321,5.304-6.539,5.304c-3.218,0-5.896-2.273-6.529-5.304H81.91z"/>
					</g>
				</g>
			</g>
			<g>
				
					<text transform="matrix(1 0 0 1 202.9827 236.0842)" style="fill:#FFD840; font-family:'Montserrat-Bold'; font-size:21.7915px;">25%</text>
			</g>
			<g>
				<g>
					<g>
						<g>
							
								<path style="fill:none;stroke:#FFD840;stroke-width:1.5;stroke-linecap:round;stroke-linejoin:round;stroke-miterlimit:10;" d="
								M242.999,171.202c2.78,0,5.033,2.253,5.033,5.033v20.306c0,2.78-2.253,5.033-5.033,5.033h-35.103
								c-2.78,0-5.033-2.253-5.033-5.033v-20.306c0-2.78,2.253-5.033,5.033-5.033h30.072"/>
							
								<line style="fill:none;stroke:#FFD840;stroke-width:1.5;stroke-linecap:round;stroke-linejoin:round;stroke-miterlimit:10;" x1="248.036" y1="189.696" x2="228.871" y2="189.696"/>
							
								<line style="fill:none;stroke:#FFD840;stroke-width:1.5;stroke-linecap:round;stroke-linejoin:round;stroke-miterlimit:10;" x1="222.022" y1="189.696" x2="202.868" y2="189.696"/>
							
								<path style="fill:none;stroke:#FFD840;stroke-width:1.5;stroke-linecap:round;stroke-linejoin:round;stroke-miterlimit:10;" d="
								M225.448,193.242L225.448,193.242c-1.892,0-3.427-1.534-3.427-3.427l0,0c0-1.893,1.534-3.427,3.427-3.427l0,0
								c1.892,0,3.427,1.534,3.427,3.427l0,0C228.874,191.707,227.34,193.242,225.448,193.242z"/>
							
								<path style="fill:none;stroke:#FFD840;stroke-width:1.5;stroke-linecap:round;stroke-linejoin:round;stroke-miterlimit:10;" d="
								M217.491,171.202V169.6c0-1.363,1.105-2.468,2.468-2.468h10.977c1.363,0,2.469,1.105,2.469,2.468v1.602"/>
						</g>
					</g>
				</g>
			</g>
			
				<text transform="matrix(1 0 0 1 351.6096 236.0842)" style="fill:#D70040; font-family:'Montserrat-Bold'; font-size:21.7915px;">50%</text>
			<g>
				<g>
					<g>
						
							<path style="fill:none;stroke:#D70040;stroke-width:1.5;stroke-linecap:round;stroke-linejoin:round;stroke-miterlimit:10;" d="
							M362.12,191.612L362.12,191.612c-2.469,0-4.471-2.002-4.471-4.471v-12.981c0-2.469,2.002-4.471,4.471-4.471l0,0
							c2.469,0,4.471,2.002,4.471,4.471v12.98C366.591,189.611,364.589,191.612,362.12,191.612z"/>
						
							<path style="fill:none;stroke:#D70040;stroke-width:1.5;stroke-linecap:round;stroke-linejoin:round;stroke-miterlimit:10;" d="
							M381.124,170.129c1.946-0.883,3.872-1.954,5.624-3.251c1.212-0.897,2.933,0.025,2.933,1.533v14.017"/>
						
							<path style="fill:none;stroke:#D70040;stroke-width:1.5;stroke-linecap:round;stroke-linejoin:round;stroke-miterlimit:10;" d="
							M366.591,174.074c0,0,3.373-0.322,7.76-1.529"/>
						
							<path style="fill:none;stroke:#D70040;stroke-width:1.5;stroke-linecap:round;stroke-linejoin:round;stroke-miterlimit:10;" d="
							M366.591,187.485c0,0,11.982,1.146,20.157,7.196c1.212,0.897,2.933-0.025,2.933-1.533v-14.017"/>
						
							<path style="fill:none;stroke:#D70040;stroke-width:1.5;stroke-linecap:round;stroke-linejoin:round;stroke-miterlimit:10;" d="
							M362.12,202.18L362.12,202.18c-1.029,0-1.863-0.834-1.863-1.863v-8.704h3.727v8.704
							C363.983,201.346,363.149,202.18,362.12,202.18z"/>
						
							<path style="fill:none;stroke:#D70040;stroke-width:1.5;stroke-linecap:round;stroke-linejoin:round;stroke-miterlimit:10;" d="
							M357.649,186.761c-3.155,0-5.712-2.557-5.712-5.712c0-3.154,2.557-5.712,5.712-5.712"/>
					</g>
					
						<line style="fill:none;stroke:#D70040;stroke-width:1.5;stroke-linecap:round;stroke-linejoin:round;stroke-miterlimit:10;" x1="392.903" y1="180.846" x2="398.048" y2="180.846"/>
					
						<line style="fill:none;stroke:#D70040;stroke-width:1.5;stroke-linecap:round;stroke-linejoin:round;stroke-miterlimit:10;" x1="393.656" y1="175.667" x2="397.295" y2="172.029"/>
					
						<line style="fill:none;stroke:#D70040;stroke-width:1.5;stroke-linecap:round;stroke-linejoin:round;stroke-miterlimit:10;" x1="393.656" y1="186.026" x2="397.295" y2="189.664"/>
				</g>
			</g>
			<g>
				
					<text transform="matrix(1 0 0 1 501.9719 236.0842)" style="fill:#2AC394; font-family:'Montserrat-Bold'; font-size:21.7915px;">75%</text>
			</g>
			<g>
				<g>
					<g>
						<g>
							<path style="fill:none;stroke:#2AC394;stroke-width:1.5;stroke-linecap:round;stroke-miterlimit:10;" d="M538.905,170.079
								h4.916c3.006,0,5.443,2.437,5.443,5.443v21.959c0,3.006-2.437,5.443-5.443,5.443h-37.961c-3.006,0-5.443-2.437-5.443-5.443
								v-21.959c0-3.006,2.437-5.443,5.443-5.443h25.635"/>
							
								<line style="fill:none;stroke:#2AC394;stroke-width:1.5;stroke-linecap:round;stroke-miterlimit:10;" x1="500.416" y1="195.731" x2="549.263" y2="195.731"/>
							
								<rect x="518.768" y="202.925" style="fill:none;stroke:#2AC394;stroke-width:1.5;stroke-linecap:round;stroke-miterlimit:10;" width="11.378" height="4.297"/>
							<path style="fill:none;stroke:#2AC394;stroke-width:1.5;stroke-linecap:round;stroke-miterlimit:10;" d="M531.892,210.376
								h-14.87c-0.871,0-1.577-0.706-1.577-1.577l0,0c0-0.871,0.706-1.577,1.577-1.577h14.87c0.871,0,1.577,0.706,1.577,1.577l0,0
								C533.469,209.67,532.763,210.376,531.892,210.376z"/>
						</g>
					</g>
				</g>
			</g>
			<g>
				
					<text transform="matrix(1 0 0 1 647.1672 236.0842)" style="fill:#3985FD; font-family:'Montserrat-Bold'; font-size:21.7915px;">100%</text>
			</g>
			<g>
				<g>
					<path style="fill:#3985FD;" d="M699.328,183.568c0-11.024-9.475-20.546-20.546-20.546c-0.502,0-0.909,0.407-0.909,0.909v19.636
						c0,0.502,0.407,0.909,0.909,0.909h19.636C698.921,184.477,699.328,184.07,699.328,183.568z M679.691,182.658v-17.794
						c9.291,0.495,17.299,8.503,17.794,17.794H679.691z"/>
					<circle style="fill:#3985FD;" cx="659.6" cy="202.931" r="0.909"/>
					<path style="fill:#3985FD;" d="M657.548,200.497c0.416-0.281,0.526-0.846,0.245-1.262c-2.089-3.096-3.192-6.627-3.192-10.213
						c0-9.672,8.226-18.192,17.818-18.703v18.699c-0.001,0.122,0.023,0.245,0.073,0.362c0.024,0.056,7.272,17.131,7.28,17.151
						c-2.083,0.808-4.246,1.218-6.444,1.218c-3.502,0-6.963-1.057-10.009-3.057c-0.42-0.276-0.983-0.159-1.259,0.261
						c-0.276,0.42-0.159,0.983,0.261,1.259c3.344,2.195,7.15,3.355,11.007,3.355c11.023,0,20.546-9.481,20.546-20.546
						c0-0.502-0.407-0.909-0.909-0.909h-18.727v-18.727c0-0.502-0.407-0.909-0.909-0.909c-10.991,0-20.546,9.446-20.546,20.546
						c0,3.949,1.211,7.833,3.503,11.23C656.566,200.668,657.131,200.778,657.548,200.497z M689.003,199.022H678.56l-1.544-3.637
						h13.851C690.384,196.651,689.76,197.868,689.003,199.022z M681.434,205.792l-2.102-4.953h8.324
						C685.934,202.909,683.817,204.594,681.434,205.792z M691.455,193.568h-15.21l-1.544-3.637h17.33
						C691.968,191.154,691.774,192.372,691.455,193.568L691.455,193.568z"/>
				</g>
			</g>
			<g>
				<path style="fill:none;stroke:#4D4D4D;stroke-width:0.5;stroke-miterlimit:10;" d="M111.207,148.037
					c9.655-10.591,23.561-15.369,39.017-15.369c15.457,0,29.355,4.778,39.01,15.369"/>
				<path style="fill:#8F89AD;" d="M109.236,148.037c0-1.089,0.882-1.971,1.971-1.971c1.089,0,1.971,0.883,1.971,1.971
					c0,1.089-0.882,1.971-1.971,1.971C110.119,150.008,109.236,149.125,109.236,148.037z"/>
			</g>
			<g>
				<path style="fill:none;stroke:#4D4D4D;stroke-width:0.5;stroke-miterlimit:10;" d="M262.185,248.324
					c9.655,10.591,23.561,15.369,39.017,15.369s29.355-4.778,39.01-15.369"/>
				<circle style="fill:#FFD840;" cx="262.185" cy="248.324" r="1.971"/>
			</g>
			<g>
				<path style="fill:none;stroke:#4D4D4D;stroke-width:0.5;stroke-miterlimit:10;" d="M410.906,148.037
					c9.655-10.591,23.561-15.369,39.017-15.369c15.457,0,29.355,4.778,39.01,15.369"/>
				<path style="fill:#D70040;" d="M408.934,148.037c0-1.089,0.883-1.971,1.971-1.971c1.089,0,1.971,0.883,1.971,1.971
					c0,1.089-0.882,1.971-1.971,1.971C409.817,150.008,408.934,149.125,408.934,148.037z"/>
			</g>
			<g>
				
					<text transform="matrix(1 0 0 1 136.5183 180.3752)" style="fill:#8F89AD; font-family:'Montserrat-ExtraBold'; font-size:34.8664px;">A</text>
			</g>
			
				<text transform="matrix(1 0 0 1 286.6633 240.3752)" style="fill:#FFD840; font-family:'Montserrat-ExtraBold'; font-size:34.8664px;">B</text>
			
				<text transform="matrix(1 0 0 1 437.054 180.3752)" style="fill:#D70040; font-family:'Montserrat-ExtraBold'; font-size:34.8664px;">C</text>
			
				<text transform="matrix(1 0 0 1 585.3635 240.3752)" style="fill:#2AC394; font-family:'Montserrat-ExtraBold'; font-size:34.8664px;">D</text>
			<g>
				<g>
					<g>
						<path style="fill:#FFD840;" d="M186.198,148.926c-0.215-0.038-0.387-0.216-0.409-0.444c-0.026-0.275,0.175-0.519,0.45-0.545
							l2.731-0.26l-0.26-2.73c-0.026-0.275,0.175-0.519,0.45-0.545c0.273-0.025,0.519,0.175,0.545,0.45l0.308,3.228
							c0.012,0.132-0.028,0.264-0.112,0.366c-0.084,0.103-0.206,0.167-0.338,0.18l-3.229,0.308
							C186.287,148.936,186.242,148.934,186.198,148.926z"/>
					</g>
				</g>
			</g>
			<g>
				<path style="fill:#2AC394;" d="M485.86,148.926c-0.215-0.038-0.387-0.216-0.409-0.444c-0.026-0.275,0.175-0.519,0.45-0.545
					l2.731-0.26l-0.26-2.73c-0.026-0.275,0.175-0.519,0.45-0.545c0.273-0.025,0.519,0.175,0.545,0.45l0.308,3.228
					c0.013,0.132-0.028,0.264-0.112,0.366c-0.084,0.103-0.206,0.167-0.338,0.18l-3.229,0.308
					C485.95,148.936,485.904,148.934,485.86,148.926z"/>
			</g>
			<g>
				<g>
					<path style="fill:none;stroke:#4D4D4D;stroke-width:0.5;stroke-miterlimit:10;" d="M561.855,248.324
						c9.655,10.591,23.561,15.369,39.017,15.369c15.457,0,29.355-4.778,39.01-15.369"/>
					<path style="fill:#2AC394;" d="M559.884,248.324c0,1.089,0.883,1.971,1.971,1.971c1.089,0,1.971-0.883,1.971-1.971
						c0-1.089-0.883-1.971-1.971-1.971C560.767,246.352,559.884,247.235,559.884,248.324z"/>
				</g>
				<g>
					<path style="fill:#3985FD;" d="M636.93,247.287c-0.215,0.039-0.387,0.216-0.409,0.444c-0.026,0.275,0.175,0.519,0.45,0.545
						l2.731,0.26l-0.26,2.73c-0.026,0.275,0.175,0.519,0.45,0.545c0.273,0.025,0.519-0.175,0.545-0.45l0.308-3.228
						c0.012-0.132-0.028-0.264-0.112-0.366c-0.084-0.103-0.206-0.167-0.338-0.18l-3.229-0.308
						C637.02,247.277,636.975,247.279,636.93,247.287z"/>
				</g>
			</g>
			<g>
				<path style="fill:#D70040;" d="M337.238,247.287c-0.215,0.039-0.387,0.216-0.409,0.444c-0.026,0.275,0.175,0.519,0.45,0.545
					l2.731,0.26l-0.26,2.73c-0.026,0.275,0.175,0.519,0.45,0.545c0.273,0.025,0.519-0.175,0.545-0.45l0.308-3.228
					c0.013-0.132-0.028-0.264-0.112-0.366c-0.084-0.103-0.206-0.167-0.338-0.18l-3.229-0.308
					C337.327,247.277,337.282,247.279,337.238,247.287z"/>
			</g>
		</g>
		<g>
			
				<line style="fill:none;stroke:#4D4D4D;stroke-width:0.5;stroke-miterlimit:10;" x1="256.288" y1="66.857" x2="493.712" y2="66.857"/>
			<path style="fill:#3985FD;" d="M258.097,66.857c0,0.999-0.81,1.809-1.809,1.809c-0.999,0-1.809-0.81-1.809-1.809
				c0-0.999,0.81-1.809,1.809-1.809C257.287,65.048,258.097,65.858,258.097,66.857z"/>
			<path style="fill:#3985FD;" d="M495.521,66.857c0,0.999-0.81,1.809-1.809,1.809c-0.999,0-1.809-0.81-1.809-1.809
				c0-0.999,0.81-1.809,1.809-1.809C494.711,65.048,495.521,65.858,495.521,66.857z"/>
		</g>
	</g>
</g>
</svg>
