<?xml version="1.0" encoding="utf-8"?>
<!-- Generator: Adobe Illustrator 27.5.0, SVG Export Plug-In . SVG Version: 6.00 Build 0)  -->
<svg version="1.1" xmlns="http://www.w3.org/2000/svg" xmlns:xlink="http://www.w3.org/1999/xlink" x="0px" y="0px"
	 viewBox="0 0 3710 3710" style="enable-background:new 0 0 3710 3710;" xml:space="preserve">
<g id="Background">
	<g>
		<g>
			<rect style="fill:#FFFFFF;" width="3710" height="3710"/>
		</g>
	</g>
</g>
<g id="Illustration">
	<g>
		<path style="fill:#F4F7FA;" d="M3239.123,1619.87c-56.224-368.018-101.361-622.351-304.393-761.718
			c-342.464-235.077-724.928,146.543-1210.043-109.529c-238.852-126.08-247.805-272.259-450.092-291.662
			c-357.891-34.328-650.98,392.779-676.381,429.408c-154.33,222.549-205.882,493.916-143.318,752.629
			c40.634,168.038,68.094,341.95,60.556,514.62c-13.115,300.513-5.569,581.02,286.074,760.238
			c260.4,160.022,588.122,301.156,900.772,325.874c212.474,16.801,450.751-10.386,655.535-65.702
			C3401.466,2892.11,3316.428,2125.875,3239.123,1619.87z"/>
		<g>
			<g>
				<g>
					<g>
						<defs>
							<path id="SVGID_1_" d="M2366.032,2518.5c16.205,39.569,46.605,94.595,78.931,157.953l-702.654-7.244
								c109.374-197.327,251.879-400.266,146.476-788.779c-49.464-182.322-204.758-513.483-90.614-700.51
								c130.041-213.077,302.039-85.629,376.949-254.598c117.083-264.094,381.49-419.392,612.266-243.257
								c227.767,173.837,142.686,666.513-269.042,1155.985C2262.745,2222.663,2281.41,2311.885,2366.032,2518.5z"/>
						</defs>
						
							<linearGradient id="SVGID_00000139277073892005710350000009141376463244687497_" gradientUnits="userSpaceOnUse" x1="2960.4377" y1="2856.9922" x2="1383.3969" y2="130.0292">
							<stop  offset="0" style="stop-color:#AA80F9"/>
							<stop  offset="0.9964" style="stop-color:#6165D7"/>
						</linearGradient>
						
							<use xlink:href="#SVGID_1_"  style="overflow:visible;fill:url(#SVGID_00000139277073892005710350000009141376463244687497_);"/>
						<clipPath id="SVGID_00000002382603743907814140000004395354580724181684_">
							<use xlink:href="#SVGID_1_"  style="overflow:visible;"/>
						</clipPath>
						<g style="clip-path:url(#SVGID_00000002382603743907814140000004395354580724181684_);">
							<g>
								<path style="fill:#FCFDFE;" d="M2082.119,2631.997c9.057-91.021,22.213-176.411,36.143-266.817l4.639-30.143
									c9.39-43.119,17.478-85.89,25.299-127.252c17.66-93.397,34.342-181.617,64.854-273.284
									c1.16-5.451,2.019-10.786,2.926-16.438c3.242-20.181,6.596-41.048,21.42-59.195l0.399-0.787
									c124.566-490.543,352.408-963.607,677.196-1406.044l-3.287-2.411c-324.999,442.726-553.03,916.122-677.751,1407.017
									c-15.279,18.92-18.847,41.149-21.999,60.776c-0.901,5.601-1.75,10.891-2.833,16.021
									c-30.536,91.704-47.242,180.054-64.929,273.591c-7.816,41.334-15.899,84.077-25.301,127.266l-4.659,30.266
									c-13.94,90.46-27.103,175.903-36.171,267.035L2082.119,2631.997z"/>
								<path style="fill:#FCFDFE;" d="M2155.327,2191.221c40.989-234.771-39.757-533.755-114.71-743.231
									c-81.171-226.852-173.219-400.513-174.14-402.239l-3.598,1.916c0.919,1.726,92.849,175.168,173.921,401.751
									c74.778,208.998,155.345,507.223,114.513,741.104L2155.327,2191.221z"/>
								<path style="fill:#FCFDFE;" d="M2472.424,1192.482c57.377-246.704,60.46-518.902,61.474-608.348
									c0.195-17.108,0.323-28.412,0.728-30.549l-4.005-0.761c-0.454,2.391-0.572,11.313-0.799,31.266
									c-1.012,89.336-4.093,361.198-61.369,607.469L2472.424,1192.482z"/>
								<path style="fill:#FCFDFE;" d="M2320.648,1577.652c117.629-201.948,587.581-324.206,592.313-325.419l-1.01-3.948
									c-4.749,1.214-476.347,123.91-594.825,327.317L2320.648,1577.652z"/>
							</g>
						</g>
					</g>
				</g>
				<g>
					<g>
						<defs>
							<path id="SVGID_00000025441177123060222500000014417391926720730028_" d="M2646.644,1860.242
								c-6.216,282.091-141.333,187.726-267.095,214.275c-146.973,208.033-162.619,402.288,51.864,572.398l241.289-33.57
								c89.433-3.227,194.604-29.467,189.913-148.556c-5.306-134.689-36.26-220.518,116.369-285.063
								c152.627-64.546,219.143-184.505,159.027-322.354c-63.263-145.064,90.622-338.139-19.376-436.031
								C2926.97,1250.77,2653.117,1566.5,2646.644,1860.242z"/>
						</defs>
						<use xlink:href="#SVGID_00000025441177123060222500000014417391926720730028_"  style="overflow:visible;fill:#D8DEE8;"/>
						<clipPath id="SVGID_00000132048139625542836350000003848813490621781183_">
							<use xlink:href="#SVGID_00000025441177123060222500000014417391926720730028_"  style="overflow:visible;"/>
						</clipPath>
						<g style="clip-path:url(#SVGID_00000132048139625542836350000003848813490621781183_);">
							<g>
								<path style="fill:#FCFDFE;" d="M2581.627,2364.508c101.719-109.004,190.127-230.387,262.769-360.778
									c73.266-131.517,129.512-270.451,167.169-412.948c21.594-81.709,37.102-165.024,46.092-247.63l-3.622-0.392
									c-8.973,82.422-24.446,165.556-45.995,247.092c-37.578,142.201-93.708,280.853-166.829,412.104
									c-72.498,130.134-160.732,251.278-262.248,360.065L2581.627,2364.508z"/>
								<path style="fill:#FCFDFE;" d="M2839.335,2522.135l1.688-3.231c-44.511-23.255-97.109-41.575-156.336-54.449
									c-28.222-6.136-56.278-10.283-83.388-12.324l-0.275,3.635c26.943,2.028,54.831,6.15,82.887,12.252
									C2742.823,2480.822,2795.114,2499.03,2839.335,2522.135z"/>
								<path style="fill:#FCFDFE;" d="M2796.667,2083.743c125.646-119.058,390.351-105.331,393.003-105.161l0.209-3.64
									c-2.682-0.144-268.927-13.993-395.72,106.157L2796.667,2083.743z"/>
								<path style="fill:#FCFDFE;" d="M2953.306,1771.252c39.216-191.601-102.384-414.943-103.818-417.176l-3.065,1.969
									c1.426,2.222,142.228,224.34,103.311,414.476L2953.306,1771.252z"/>
							</g>
						</g>
					</g>
				</g>
			</g>
		</g>
		<g>
			
				<linearGradient id="SVGID_00000160898605405556471570000008694016321042313136_" gradientUnits="userSpaceOnUse" x1="832.0131" y1="1456.2982" x2="2254.1968" y2="1456.2982" gradientTransform="matrix(0.9472 0.3206 -0.3206 0.9472 204.6973 -98.6772)">
				<stop  offset="0" style="stop-color:#FF9085"/>
				<stop  offset="1" style="stop-color:#FB6FBB"/>
			</linearGradient>
			<path style="fill:url(#SVGID_00000160898605405556471570000008694016321042313136_);" d="M1337.233,2834.77
				c70.436-0.49,180.252,4.997,255.837-67.055c43.978-41.925,56.261-90.115,102.061-292.279
				c39.58-174.712,59.37-262.068,59.285-266.921c-1.913-109.994-59.835-185.286-368.633-539.636
				c-209.858-240.814-292.532-285.891-284.859-392.62c10.939-152.155,190.032-214.49,176.177-393.906
				c-1.663-21.53-7.373-95.475-60.614-138.482c-91.137-73.62-257.594-4.907-344.197,56.528
				c-83.535,59.259-190.785,181.276-175.748,310.15c10.895,93.372,76.729,111.022,67.922,191.31
				c-8.861,80.78-78.176,87.278-144.338,204.887c-26.433,46.985-79.489,141.297-60.788,241.578
				c24.18,129.664,146.439,151.93,140.188,251.922c-4.517,72.247-69.822,84.245-91.836,162.908
				c-28.983,103.558,48.885,208.945,114.857,295.779C800.232,2561.183,1009.815,2837.045,1337.233,2834.77z"/>
			<path style="opacity:0.16;fill:#FFFFFF;" d="M1163.73,775.82c43.077,57.315-175.593,177.187-205.31,420.735
				c-31.975,262.047,174.302,507.409,269.63,620.797c162.642,193.461,258.392,195.387,342.975,380.847
				c33.477,73.401,103.219,226.319,37.495,384.943c-6.106,14.738-76.634,178.026-232.633,214.872
				c-176.944,41.796-329.317-110.863-460.611-242.399c-79.334-79.482-237.816-238.257-189.257-339.31
				c29.684-61.774,129.904-87.754,202.964-80.733c104.278,10.017,167.511,88.627,181.834,74.65
				c12.899-12.588-25.994-88.475-91.155-156.682c-130.336-136.427-232.514-102.643-324.083-219.786
				c-11.1-14.198-97.41-127.979-60.904-246.064c21.054-68.105,83.511-139.413,142.749-135.19
				c66.998,4.776,100.964,104.106,119.704,95.564c17.919-8.167-2.249-103.944-36.008-195.692
				c-49.603-134.809-87.215-148.587-96.331-226.592c-13.908-119.011,58.725-214.596,69.364-228.188
				C933.838,770.24,1126.901,726.817,1163.73,775.82z"/>
		</g>
		<g>
			
				<linearGradient id="SVGID_00000183235322183108964630000003633030788706670761_" gradientUnits="userSpaceOnUse" x1="11065.1543" y1="-3791.502" x2="11327.7559" y2="-3791.502" gradientTransform="matrix(0.0057 0.3964 -0.9999 0.0146 -1057.7975 -1387.3977)">
				<stop  offset="0" style="stop-color:#444B8C"/>
				<stop  offset="0.9964" style="stop-color:#26264F"/>
			</linearGradient>
			<path style="fill:url(#SVGID_00000183235322183108964630000003633030788706670761_);" d="M2797.91,3047.568
				c-108.761,1.598-197.272-20.41-197.694-49.155s87.404-53.342,196.165-54.94c108.761-1.597,197.271,20.41,197.694,49.155
				C2994.497,3021.374,2906.671,3045.971,2797.91,3047.568z"/>
			
				<linearGradient id="SVGID_00000044887997074265268460000014510949549551296433_" gradientUnits="userSpaceOnUse" x1="11160.7656" y1="-3789.198" x2="11900.0107" y2="-3889.0959" gradientTransform="matrix(0.0057 0.3964 -0.9999 0.0146 -1057.7975 -1387.3977)">
				<stop  offset="0" style="stop-color:#444B8C"/>
				<stop  offset="0.9964" style="stop-color:#26264F"/>
			</linearGradient>
			<path style="fill:url(#SVGID_00000044887997074265268460000014510949549551296433_);" d="M2797.801,3040.173
				c-108.761,1.597-197.271-20.41-197.694-49.155c-0.422-28.745,87.404-53.342,196.165-54.939
				c108.761-1.597,197.272,20.41,197.694,49.155C2994.388,3013.979,2906.562,3038.576,2797.801,3040.173z"/>
			
				<linearGradient id="SVGID_00000004538131868560000870000002806074785516972954_" gradientUnits="userSpaceOnUse" x1="4017.0208" y1="-3790.0374" x2="4719.2988" y2="-3790.0374" gradientTransform="matrix(0.0152 1.0392 -0.9999 0.0146 -1064.2269 -1850.5774)">
				<stop  offset="0" style="stop-color:#444B8C"/>
				<stop  offset="0.9964" style="stop-color:#26264F"/>
			</linearGradient>
			<path style="fill:url(#SVGID_00000004538131868560000870000002806074785516972954_);" d="M2782.755,2987.616l-10.396-707.853
				c-0.089-6.062,4.567-11.046,10.4-11.132l7.418-0.109c5.833-0.085,10.634,4.76,10.722,10.822l10.396,707.852
				c0.09,6.063-4.567,11.046-10.4,11.132l-7.417,0.109C2787.645,2998.523,2782.844,2993.678,2782.755,2987.616z"/>
			
				<linearGradient id="SVGID_00000018930271541470575960000013921255825428601267_" gradientUnits="userSpaceOnUse" x1="9295.4443" y1="-3797.7107" x2="9531.4053" y2="-3797.7107" gradientTransform="matrix(0.0057 0.3964 -0.9999 0.0146 -1057.7975 -1387.3977)">
				<stop  offset="0" style="stop-color:#444B8C"/>
				<stop  offset="0.9964" style="stop-color:#26264F"/>
			</linearGradient>
			<path style="fill:url(#SVGID_00000018930271541470575960000013921255825428601267_);" d="M2793.877,2335.404
				c-97.727,1.436-177.259-18.34-177.638-44.168c-0.379-25.829,78.537-47.931,176.265-49.366
				c97.727-1.436,177.259,18.339,177.638,44.168C2970.521,2311.867,2891.604,2333.969,2793.877,2335.404z"/>
			
				<linearGradient id="SVGID_00000086652823388933324600000014259599490071163795_" gradientUnits="userSpaceOnUse" x1="2590.4761" y1="1897.4484" x2="2990.9851" y2="1897.4484">
				<stop  offset="0.0036" style="stop-color:#E38DDD"/>
				<stop  offset="1" style="stop-color:#9571F6"/>
			</linearGradient>
			<path style="fill:url(#SVGID_00000086652823388933324600000014259599490071163795_);" d="M2990.984,2519.471l-6.647-1249.83
				c-0.422-28.745-88.933-50.752-197.694-49.155c-108.761,1.598-196.587,26.195-196.165,54.94l6.647,1249.83
				c0.422,28.745,88.933,50.752,197.694,49.155C2903.58,2572.813,2991.406,2548.216,2990.984,2519.471z"/>
			
				<linearGradient id="SVGID_00000004537365208789543700000017039585964264254085_" gradientUnits="userSpaceOnUse" x1="3033.5723" y1="1782.0096" x2="2413.4072" y2="1760.0182">
				<stop  offset="0" style="stop-color:#D8DEE8"/>
				<stop  offset="0.9964" style="stop-color:#FFFFFF"/>
			</linearGradient>
			<path style="fill:url(#SVGID_00000004537365208789543700000017039585964264254085_);" d="M2604.748,1275.216
				c-0.175-11.95,17.885-23.616,50.853-32.85c34.742-9.73,81.309-15.491,131.125-16.223c49.815-0.732,96.532,3.66,131.544,12.365
				c33.226,8.261,51.621,19.392,51.796,31.342l5.733,1001.697c0.176,11.95-17.884,23.616-50.854,32.85
				c-34.742,9.73-81.309,15.491-131.125,16.223c-49.816,0.732-96.532-3.66-131.544-12.365
				c-33.226-8.261-51.621-19.392-51.796-31.342L2604.748,1275.216z"/>
			<path style="opacity:0.5;fill:#FFFFFF;" d="M2788.172,1324.581c-108.761,1.598-197.272-20.41-197.694-49.155
				c-0.422-28.745,87.404-53.342,196.165-54.94c108.761-1.597,197.272,20.41,197.694,49.155
				C2984.759,1298.386,2896.933,1322.984,2788.172,1324.581z"/>
			<g>
				
					<linearGradient id="SVGID_00000114755760735975522520000002427949624903583417_" gradientUnits="userSpaceOnUse" x1="1207.8425" y1="-3806.6519" x2="1949.9613" y2="-3806.6519" gradientTransform="matrix(0.0146 0.9999 -0.9999 0.0146 -1046.3273 -622.0484)">
					<stop  offset="0" style="stop-color:#444B8C"/>
					<stop  offset="0.9964" style="stop-color:#26264F"/>
				</linearGradient>
				<path style="fill:url(#SVGID_00000114755760735975522520000002427949624903583417_);" d="M2795.476,1264.9l-10.689-727.773
					c-0.058-3.941-3.3-7.089-7.24-7.031c-3.941,0.058-7.088,3.299-7.031,7.24l10.689,727.773c0.057,3.94,3.299,7.088,7.24,7.03
					C2792.386,1272.082,2795.534,1268.84,2795.476,1264.9z"/>
				<path style="fill:#D8DEE8;" d="M2788.601,1292.771c-31.73,0.466-57.613-10.112-57.812-23.627
					c-0.198-13.515,25.363-24.849,57.093-25.315s57.614,10.112,57.812,23.627
					C2845.893,1280.971,2820.332,1292.306,2788.601,1292.771z"/>
				<path style="opacity:0.5;fill:#D8DEE8;" d="M2788.523,1287.447c-27.19,0.399-49.37-8.665-49.54-20.247
					c-0.17-11.581,21.734-21.293,48.925-21.693c27.19-0.399,49.37,8.665,49.54,20.247
					C2837.618,1277.335,2815.713,1287.047,2788.523,1287.447z"/>
				<path style="fill:#D8DEE8;" d="M2762.012,1255.07l-2.38-162.011c-0.142-9.64,7.558-17.569,17.198-17.71l14.322-0.211
					c9.64-0.142,17.569,7.558,17.71,17.198l2.379,162.012c0.142,9.64-7.558,17.569-17.197,17.71l-14.322,0.21
					C2770.082,1272.409,2762.153,1264.71,2762.012,1255.07z"/>
				<path style="fill:#FFFFFF;" d="M2802.199,1236.809l-1.881-128.075c-0.173-11.789-5.105-21.276-11.016-21.189l0,0
					c-5.911,0.087-10.562,9.715-10.389,21.503l1.881,128.075c0.173,11.789,5.105,21.276,11.016,21.189l0,0
					C2797.721,1258.226,2802.373,1248.599,2802.199,1236.809z"/>
			</g>
		</g>
		<g>
			<path style="fill:#97A6B7;" d="M1994.563,948.091c2.154-27.077,62.729-20.542,90.31-67.732
				c44.336-75.857-61.67-179.175-28.222-220.13c29.991-36.721,163.962-13.339,222.952,73.377
				c63.714,93.661,32.685,250.516-62.088,293.506C2123.382,1069.813,1991.32,988.859,1994.563,948.091z"/>
			<path style="fill:#97A6B7;" d="M1345.854,2492.64c-32.492-58.939-59.843-57.897-83.014-108.275
				c-34.135-74.211-10.51-154.158,1.523-194.883c37.663-127.464,118.008-163.681,98.675-237.821
				c-10.259-39.347-38.636-51.189-32.537-85.616c7.92-44.7,60.127-49.406,66.594-90.77c6.836-43.732-48.509-57.749-49.361-105.67
				c-0.914-51.395,62.25-63.142,114.331-149.945c5.909-9.849,65.159-110.416,34.496-148.28
				c-30.467-37.622-143.997-6.286-217.813,36.042c-234.9,134.697-257.147,489.372-261.435,557.744
				c-5.119,81.597-11.576,355.805,164.2,568.082c56.343,68.042,154.853,158.035,188.454,137.227
				C1397.57,2653.382,1383.199,2560.386,1345.854,2492.64z"/>
			<path style="opacity:0.3;fill:#97A6B7;" d="M1496.561,1371.38c-13.537-16.718-43.49-19.798-79.057-14.37
				c0.83,21.401-0.809,45.406-7.348,70.634c-44.138,170.265-253.962,178.124-283.329,319.499
				c-23.219,111.776,99.683,146.629,80.377,289.357c-15.867,117.303-106.446,149.695-92.433,253.188
				c8.278,61.141,43.12,73.695,78.368,150.707c22.409,48.961,33.345,98.583,37.091,146.147
				c52.999,52.949,114.573,99.517,139.738,83.932c27.603-17.093,13.232-110.088-24.113-177.834
				c-32.492-58.939-59.843-57.897-83.014-108.275c-34.135-74.211-10.51-154.158,1.523-194.883
				c37.663-127.464,118.008-163.681,98.675-237.821c-10.259-39.347-38.636-51.189-32.537-85.616
				c7.92-44.7,60.127-49.406,66.594-90.77c6.836-43.732-48.509-57.749-49.361-105.67c-0.914-51.395,62.25-63.142,114.331-149.945
				C1467.974,1509.811,1527.223,1409.244,1496.561,1371.38z"/>
			<path style="fill:#D8DEE8;" d="M2120.167,982.556c-84.914-66.675-228.283-61.018-319.178,0
				c-90.638,60.846-105.985,161.227-141.865,305.301c-34.882,140.063-104.569,326.178-243.945,698.408
				c-110.765,295.818-161.866,366.508-164.661,542.348c-1.762,110.793-4.003,251.801,86.293,328.738
				c100.544,85.669,212.638,3.981,536.517,3.014c313.933-0.938,370.015,75.328,478.165,12.302
				c181.702-105.891,185.625-415.719,187.96-600.06c3.65-288.29-78.627-512.995-188.961-814.333
				c-54.646-149.247-49.963-94.031-145.22-327.636C2171.937,1048.886,2159.742,1013.633,2120.167,982.556z"/>
			
				<linearGradient id="SVGID_00000158011326944627510170000002864365320739018429_" gradientUnits="userSpaceOnUse" x1="1931.8999" y1="1225.2854" x2="1825.4004" y2="1609.0864">
				<stop  offset="0" style="stop-color:#FF9085"/>
				<stop  offset="1" style="stop-color:#FB6FBB"/>
			</linearGradient>
			<path style="fill:url(#SVGID_00000158011326944627510170000002864365320739018429_);" d="M1828.812,1383.584
				c-13.688,13.527-40.47,44.1-51.647,93.291c-15.36,67.606,2.465,154.051,34.332,163.9
				c33.137,10.242,74.876-64.369,104.228-116.835c28.508-50.958,44.964-97.945,54.299-129.184
				c-6.592,5.556-45.275,37.044-92.661,22.304C1853.302,1409.577,1837.066,1393.303,1828.812,1383.584z"/>
			<path style="fill:#97A6B7;" d="M1809.531,1340.835c-2.27-9.099,71.059,124.876,181.328,16.423c0,0,83.489,87.342,158.385,6.084
				c0,0-47.034,124.907-156.747,26.284C1992.497,1389.626,1852.54,1513.241,1809.531,1340.835z"/>
			
				<linearGradient id="SVGID_00000167372571704998167730000017142390917238142615_" gradientUnits="userSpaceOnUse" x1="1992.7854" y1="1283.6929" x2="1978.7192" y2="1048.5897">
				<stop  offset="0" style="stop-color:#311944"/>
				<stop  offset="1" style="stop-color:#893976"/>
			</linearGradient>
			<path style="fill:url(#SVGID_00000167372571704998167730000017142390917238142615_);" d="M1970.743,1345.258
				c0,0-56.527-7.921-54.363-29.079c2.161-21.158,139.433-38.237,153.686-17.138
				C2084.318,1320.14,2039.02,1360.329,1970.743,1345.258z"/>
			
				<linearGradient id="SVGID_00000168090847187057084280000011788173684622819201_" gradientUnits="userSpaceOnUse" x1="2102.7727" y1="1277.1128" x2="2088.7065" y2="1042.0096">
				<stop  offset="0" style="stop-color:#311944"/>
				<stop  offset="1" style="stop-color:#893976"/>
			</linearGradient>
			<path style="fill:url(#SVGID_00000168090847187057084280000011788173684622819201_);" d="M2084.318,1243.781
				c-4.845,7.222-4.371,19.51,3.014,25.118c8.359,6.348,20.949,0.627,27.127-6.028c4.53-4.88,9.057-13.976,5.707-20.094
				C2115.092,1233.504,2092.336,1231.831,2084.318,1243.781z"/>
			<path style="fill:#97A6B7;" d="M2066.233,1167.424c-6.164,6.914-2.426,21.323,3.014,30.141
				c17.702,28.699,73.205,30.249,79.371,17.08c4.686-10.008-17.888-31.153-37.173-41.193
				C2109.426,1172.402,2076.68,1155.704,2066.233,1167.424z"/>
			
				<linearGradient id="SVGID_00000163053589491469263250000015837089720531828880_" gradientUnits="userSpaceOnUse" x1="1887.9658" y1="1289.9645" x2="1873.8998" y2="1054.8612">
				<stop  offset="0" style="stop-color:#311944"/>
				<stop  offset="1" style="stop-color:#893976"/>
			</linearGradient>
			<path style="fill:url(#SVGID_00000163053589491469263250000015837089720531828880_);" d="M1902.561,1243.781
				c4.845,7.222,4.371,19.51-3.014,25.118c-8.36,6.348-20.949,0.627-27.127-6.028c-4.53-4.88-9.057-13.976-5.708-20.094
				C1871.787,1233.504,1894.543,1231.831,1902.561,1243.781z"/>
			<path style="fill:#97A6B7;" d="M1920.646,1167.424c6.164,6.914,2.425,21.323-3.014,30.141
				c-17.702,28.699-73.205,30.249-79.372,17.08c-4.686-10.008,17.888-31.153,37.174-41.193
				C1877.453,1172.402,1910.199,1155.704,1920.646,1167.424z"/>
			<path style="fill:#D8DEE8;" d="M2512.641,1979.453c-8.233,27.996-21.287,48.555-37.115,63.67
				c-74.597,71.246-205.659,17.477-368.552,120.061c-135.669,85.438-116.495,222.573-200.52,231.731
				c-105.81,11.533-164.353-179.958-315.472-174.692c-13.141,0.458-62.696,2.184-103.555,35.186
				c-125.647,101.48,20.618,345.467-83.751,493.758c-19.539,27.762-49.713,54.727-97.599,75.065
				c8.824,11.98,18.98,23.102,30.735,33.119c100.544,85.669,212.638,3.981,536.517,3.014
				c313.933-0.938,370.015,75.328,478.165,12.302c181.702-105.891,185.625-415.719,187.96-600.06
				C2540.766,2168.826,2530.899,2073.295,2512.641,1979.453z"/>
			<path style="fill:#D8DEE8;" d="M1541.95,1978.661c-123.368,94.146-30.773,375.824,71.758,687.733
				c67.056,203.99,122.803,282.5,205.543,312.961c56.983,20.977,142.056,24.795,189.891-21.099
				c58.684-56.305,25.544-153.106-12.057-361.697c-72.948-404.683-27.949-482.702-123.58-566.658
				C1783.016,1950.459,1623.976,1916.063,1541.95,1978.661z"/>
			<path style="fill:#D8DEE8;" d="M2186.574,2056.447c-61.863,148.957,26.224,207.791,7.555,403.281
				c-22.34,233.926-164.637,319.015-106.462,428.006c35.951,67.354,123.144,96.397,186.708,93.455
				c191.253-8.85,276.229-312.223,281.307-331.216c13.914-52.035,13.216-119.329,11.823-253.915
				c-3.085-297.774-84.59-551.232-117.614-594.313c-22.959-29.951-29.9,87.352-89.099,86.387
				C2259.251,1886.48,2190.45,2047.114,2186.574,2056.447z"/>
			<path style="fill:#97A6B7;" d="M1861.404,968.449c0,0-82.932-127.878-218.568-25.398s-138.65,245.306-78.368,286.924
				c60.283,41.617,147.693,9.796,171.806-49.647C1760.387,1120.886,1802.672,972.747,1861.404,968.449z"/>
		</g>
		<g>
			
				<linearGradient id="SVGID_00000070827728885888505890000004623242726435676327_" gradientUnits="userSpaceOnUse" x1="-3290.1208" y1="1256.5364" x2="-3215.9365" y2="1710.2034" gradientTransform="matrix(-0.981 -0.194 -0.194 0.981 -1330.1932 236.6994)">
				<stop  offset="0" style="stop-color:#FFC444"/>
				<stop  offset="0.9964" style="stop-color:#F36F56"/>
			</linearGradient>
			<path style="fill:url(#SVGID_00000070827728885888505890000004623242726435676327_);" d="M1595.442,2133.725
				c0,0,7.108-27.877,18.937-35.237c11.828-7.357,28.547-15.224,32.378-18.457c3.83-3.233,8.305,6.43-2.735,13.823
				c-11.036,7.395-11.036,7.395-11.036,7.395c-0.231,2.039,0.079,3.625,0.452,4.742c1.749,5.234,7.714,8.822,15.086,9.501
				c28.323,5.931,39.389,6.221,43.708,4.957c0.641-0.188,3.104-0.987,4.145,0.108c1.666,1.755-1.33,7.319-2.609,9.268
				c-7.663,11.704-34.262,16.794-54.177,7.641c-7.275-3.341-10.059-6.931-15.368-6.03c-8.429,1.43-13.607,12.551-16.669,21.757
				L1595.442,2133.725z"/>
			<path style="fill:#FFFFFF;" d="M1618.286,2142.565c-8.065-7.169-16.13-14.337-24.196-21.506
				c-2.952,2.983-46.005,44.995-106.19,32.261c-41.44-8.77-65.342-42.802-80.651-64.522
				c-45.986-65.244-18.483-113.116-67.997-157.45c-13.751-12.31-40.722-27.217-58.356-22.671
				c-42.016,10.831-66.205,137.188-25.541,236.577c8.207,20.06,53.404,130.517,155.927,142.484
				C1494.06,2297.399,1581.839,2239.075,1618.286,2142.565z"/>
			
				<linearGradient id="SVGID_00000013886903189272789860000001676614964593789116_" gradientUnits="userSpaceOnUse" x1="-2824.2861" y1="2145.5181" x2="-2440.4587" y2="2145.5181" gradientTransform="matrix(-1 0 0 1 -1206.0001 0)">
				<stop  offset="0" style="stop-color:#AA80F9"/>
				<stop  offset="0.9964" style="stop-color:#6165D7"/>
			</linearGradient>
			<path style="opacity:0.15;fill:url(#SVGID_00000013886903189272789860000001676614964593789116_);" d="M1290.304,2029.654
				c75.773,59.849,67.339,174.637,113.92,180.457c14.228,1.778,13.446-9.13,47.383-20.162
				c49.636-16.138,72.955,0.163,107.871-12.098c14.461-5.078,33.271-15.925,51.797-41.517c2.337,2.078,4.675,4.155,7.011,6.232
				c-36.447,96.51-124.226,154.835-207.005,145.172c-102.523-11.966-147.72-122.424-155.927-142.484
				c-19.081-46.635-23.882-99.207-19.262-142.995C1253.583,2007.362,1272.581,2015.656,1290.304,2029.654z"/>
			
				<linearGradient id="SVGID_00000101062994987879199530000004942889970285777304_" gradientUnits="userSpaceOnUse" x1="1173.7324" y1="3215.2673" x2="1254.5664" y2="3215.2673" gradientTransform="matrix(-0.9996 0.0289 0.0289 0.9996 2205.6753 -31.2392)">
				<stop  offset="0" style="stop-color:#444B8C"/>
				<stop  offset="0.9964" style="stop-color:#26264F"/>
			</linearGradient>
			<path style="fill:url(#SVGID_00000101062994987879199530000004942889970285777304_);" d="M1050.623,3200.126
				c-4.42,3.593-5.234,12.566-5.764,18.432c-0.239,2.62-0.357,3.931-0.064,4.856c2.136,6.75,15.228,7.46,35.756,9.558
				c32.442,3.314,42.096,5.868,44.635,1.04c2.379-4.524-3.379-11.932-4.027-12.749c-3.486-4.391-7.764-5.988-16.036-8.711
				c-15.305-5.038-25.647-7.797-28.778-8.632C1056.793,3198.7,1053.526,3197.768,1050.623,3200.126z"/>
			
				<linearGradient id="SVGID_00000117658824478051284630000008898377274471331477_" gradientUnits="userSpaceOnUse" x1="1598.9966" y1="3208.6768" x2="1634.4596" y2="3135.2766" gradientTransform="matrix(-0.9925 0.1225 0.1225 0.9925 2272.9387 -162.6817)">
				<stop  offset="0" style="stop-color:#FFC444"/>
				<stop  offset="0.9964" style="stop-color:#F36F56"/>
			</linearGradient>
			<path style="fill:url(#SVGID_00000117658824478051284630000008898377274471331477_);" d="M1069.916,3170.489l3.247,36.969
				c-0.922,1.785-11.91,7.14-20.639,2.548l-8.341-36.339L1069.916,3170.489z"/>
			
				<linearGradient id="SVGID_00000119810796368405787300000010320823677029540753_" gradientUnits="userSpaceOnUse" x1="1676.6581" y1="3160.3923" x2="1762.5388" y2="3160.3923" gradientTransform="matrix(-0.9642 0.2651 0.2651 0.9642 2192.8501 -308.9189)">
				<stop  offset="0" style="stop-color:#444B8C"/>
				<stop  offset="0.9964" style="stop-color:#26264F"/>
			</linearGradient>
			<path style="fill:url(#SVGID_00000119810796368405787300000010320823677029540753_);" d="M1334.23,3183.778
				c-5.298,5.851-6.505,16.624-1.899,21.931c4.529,5.218,11.338,1.304,30.649,1.881c20.686,0.618,26.087,5.504,40.144,1.625
				c5.679-1.57,15.709-5.377,15.519-9.433c-0.133-2.852-5.24-4.325-22.295-10.039c-24.209-8.109-24.102-8.552-29.243-9.404
				C1354.193,3178.202,1341.227,3176.053,1334.23,3183.778z"/>
			
				<linearGradient id="SVGID_00000116915220264643307160000006902103486260494502_" gradientUnits="userSpaceOnUse" x1="1502.1832" y1="3189.0884" x2="1538.3992" y2="3114.1299" gradientTransform="matrix(-0.9802 0.1979 0.1979 0.9802 2204.0603 -227.1835)">
				<stop  offset="0" style="stop-color:#FFC444"/>
				<stop  offset="0.9964" style="stop-color:#F36F56"/>
			</linearGradient>
			<path style="fill:url(#SVGID_00000116915220264643307160000006902103486260494502_);" d="M1347.484,3150.039l10.375,34.512
				c-0.784,1.852-11.332,8.027-20.384,4.115l-15.409-33.497L1347.484,3150.039z"/>
			
				<linearGradient id="SVGID_00000013903606690956333490000000705322964144754878_" gradientUnits="userSpaceOnUse" x1="1385.8282" y1="3043.0276" x2="1156.7678" y2="2526.6709">
				<stop  offset="0" style="stop-color:#AA80F9"/>
				<stop  offset="0.9964" style="stop-color:#6165D7"/>
			</linearGradient>
			<path style="fill:url(#SVGID_00000013903606690956333490000000705322964144754878_);" d="M1255.299,2394.17
				c1.486,115.987,9.401,246.401,28.392,388.088c18.769,140.036,45.073,266.564,73.766,377.829
				c-13.237,3.562-26.475,7.123-39.712,10.685c-33.584-31.316-75.95-80.611-96.393-150.273
				c-12.687-43.237-8.459-65.455-16.507-118.635c-12.814-84.675-38.771-129.037-65.598-197.318
				c-24.107-61.357-52.603-151.406-67.881-271.772C1132.677,2419.906,1193.988,2407.037,1255.299,2394.17z"/>
			
				<linearGradient id="SVGID_00000038379137096759457170000012284578284551805874_" gradientUnits="userSpaceOnUse" x1="791.285" y1="3091.0798" x2="562.2288" y2="2574.7324" gradientTransform="matrix(0.9925 -0.1225 0.1225 0.9925 83.0051 108.1241)">
				<stop  offset="0" style="stop-color:#AA80F9"/>
				<stop  offset="0.9964" style="stop-color:#6165D7"/>
			</linearGradient>
			<path style="fill:url(#SVGID_00000038379137096759457170000012284578284551805874_);" d="M1109.486,2394.7
				c-8.102,147.516-14.766,297.778-19.815,450.701c-3.791,114.753-6.573,228.051-8.422,339.858
				c-13.522,1.669-27.043,3.34-40.566,5.008c-13.066-24.326-30.42-61.518-42.308-109.187
				c-14.438-57.895-11.095-92.276-17.427-152.279c-7.105-67.298-17.425-81.96-35.706-166.856
				c-37.104-172.293-55.657-258.442-14.266-312.03C944.411,2432.52,986.531,2388.88,1109.486,2394.7z"/>
			
				<linearGradient id="SVGID_00000054961619168364283670000007356848551352160663_" gradientUnits="userSpaceOnUse" x1="948.1749" y1="2193.1069" x2="1285.0367" y2="2193.1069">
				<stop  offset="0" style="stop-color:#AA80F9"/>
				<stop  offset="0.9964" style="stop-color:#6165D7"/>
			</linearGradient>
			<path style="fill:url(#SVGID_00000054961619168364283670000007356848551352160663_);" d="M948.175,1907.882
				c31.666-8.905,78.076-19.319,134.914-22.532c81.066-4.582,121.599-6.873,150.322,12.432
				c66.339,44.587,14.98,147.494,42.135,402.591c11.542,108.423,16.745,101.408-9.265,139.998
				c-52.846,78.402-201.287,84.827-269.285,16.851c-35.938-35.927-40.573-37.954-41.438-78.948
				C952.147,2216.464,949.575,2063.671,948.175,1907.882z"/>
			<path style="fill:#FFFFFF;" d="M1297.763,1910.324c-42.145-21.663-81.283-25.625-103.398-26.198
				c-20.06,49.553-45.258,124.245-57.174,217.692c-10.754,84.343-5.73,140.149,0.028,256.018
				c3.638,73.2,7.344,179.266,6.229,309.928c22.318,7.158,40.569,8.84,52.811,9.113c43.387,0.973,57.877-14.703,102.194-10.363
				c19.332,1.893,24.142,5.616,30.646,1.282c18.13-12.087,4.556-56.915-4.543-105.592c-14.067-75.266,1.251-59.775-12.488-181.66
				c-11.39-101.048-27.101-157.689-12.491-163.495C1307.425,2213.933,1314.807,1919.086,1297.763,1910.324z"/>
			
				<linearGradient id="SVGID_00000170989949233640857600000013417530267010139026_" gradientUnits="userSpaceOnUse" x1="940.6403" y1="1659.8618" x2="1313.0454" y2="2502.3132">
				<stop  offset="0" style="stop-color:#AA80F9"/>
				<stop  offset="0.9964" style="stop-color:#6165D7"/>
			</linearGradient>
			<path style="opacity:0.15;fill:url(#SVGID_00000170989949233640857600000013417530267010139026_);" d="M1255.299,2394.17
				c0.571-76.029,41.078-86.78,36.998-152.187c-4.107-65.873-46.101-69.489-44.648-126.177
				c1.766-68.94,64.567-90.708,62.119-153.354c-0.826-21.121-8.845-39.751-19.269-55.528c-39.324-18.516-75.302-22.26-96.134-22.798
				c-20.06,49.553-45.258,124.245-57.174,217.692c-10.754,84.342-5.73,140.149,0.028,256.018
				c3.638,73.2,7.345,179.265,6.229,309.928c22.318,7.158,40.57,8.84,52.811,9.113c43.387,0.973,57.878-14.703,102.194-10.363
				c19.332,1.893,24.143,5.616,30.646,1.282c15.839-10.562,7.478-46.119-0.955-87.397c-13.317-17.196-27.046-33.732-41.67-64.71
				C1275.425,2492.289,1254.888,2448.789,1255.299,2394.17z"/>
			<path style="fill:#FFFFFF;" d="M1097.48,2116.001c9.923,37.688,9.008,67.691,7.948,95.372
				c-5.834,152.508-8.8,229.205-11.354,250.919c-12.398,105.441-21.159,98.875-18.151,141.695
				c1.611,22.922,5.368,42.544-7.173,56.969c-14.955,17.204-36.474,7.896-89.42,14.722c-48.676,6.277-49.962,16.656-102.563,22.979
				c-21.371,2.569-79.74,9.585-85.839-7.018c-3.262-8.878,8.811-23.454,20.437-30.656c18.945-11.737,35.09-2.889,41.485-12.25
				c7.33-10.732-12.459-24.438-13.101-50.195c-0.639-25.672,18.473-34.017,30.338-65.543c11.056-29.373,6.599-54.371,4.894-72.081
				c-7.606-78.997,27.164-141.472,34.026-246.135c10.687-162.982-58.999-234.576-11.696-286.799
				c25.614-28.277,67.766-31.268,94.123-30.63c27.383,57.046,50.968,101.93,67.668,132.756
				C1077.134,2063.39,1088.962,2083.645,1097.48,2116.001z"/>
			<g>
				<path style="fill:#FFFFFF;" d="M1203.639,2073.993c-3.889-13.388-16.169-26.22-11.355-42.01
					c2.838-9.305,10.301-15.334,16.037-18.932c37.8-8.495,63.227-43.859,59.466-80.98c-1.51-14.912-7.606-28.641-16.891-39.781
					c-23.072-6.169-42.997-7.813-56.531-8.162c-20.06,49.553-45.258,124.245-57.174,217.692
					c-5.074,39.796-6.609,73.275-6.239,109.672c6.551-20.916,15.746-36.539,25.495-48.4
					C1172.956,2143.004,1213.108,2106.597,1203.639,2073.993z"/>
			</g>
			<g style="opacity:0.64;">
				
					<linearGradient id="SVGID_00000036946171378269148610000003313089089178624187_" gradientUnits="userSpaceOnUse" x1="881.7752" y1="2297.6353" x2="1106.0544" y2="2297.6353">
					<stop  offset="0" style="stop-color:#AA80F9"/>
					<stop  offset="0.9964" style="stop-color:#6165D7"/>
				</linearGradient>
				<path style="opacity:0.3;fill:url(#SVGID_00000036946171378269148610000003313089089178624187_);" d="M1097.48,2116.001
					c-8.518-32.356-20.347-52.612-38.377-85.895c-16.703-30.827-40.285-75.711-67.668-132.756
					c-6.391-0.155-13.722-0.085-21.509,0.495c-41.686,57.576-44.328,89.762-34.646,108.865c9.436,18.613,29.169,22.232,31.747,42.33
					c4.031,31.423-41.696,42.165-52.911,84.659c-9.791,37.095,13.12,74.144,34.682,109.017
					c36.677,59.313,70.26,66.641,69.027,98.399c-1.284,33.041-37.973,33.63-52.913,74.077
					c-23.418,63.398,49.352,108.986,27.514,165.085c-16.923,43.476-68.037,35.119-99.474,91.009
					c-4.986,8.867-8.532,17.849-11.174,26.704c47.593-6.364,50.519-16.248,97.556-22.313c52.945-6.827,74.462,2.482,89.42-14.722
					c12.542-14.425,8.784-34.047,7.173-56.969c-3.008-42.82,5.754-36.254,18.151-141.695c2.554-21.714,5.521-98.411,11.354-250.919
					C1106.488,2183.691,1107.404,2153.69,1097.48,2116.001z"/>
			</g>
			<path style="fill:#FFFFFF;" d="M986.213,2028.009c21.5,19.11,37.056,25.561,39.742,43.788
				c2.961,20.079-13.772,26.796-10.926,46.346c3.557,24.455,31.271,24.508,45.553,55.763c9.348,20.461,1.195,28.583,6.812,55.066
				c3.423,16.142,11.897,38.634,34.912,63.607c0.944-24.264,1.976-51.25,3.123-81.206c1.059-27.682,1.975-57.684-7.948-95.372
				c-8.518-32.356-20.346-52.612-38.377-85.895c-16.7-30.826-40.285-75.71-67.668-132.756c-15.447-0.373-36.31,0.544-56.098,7.022
				c-6.835,12.468-7.967,22.377-8.162,27.697C925.633,1974.162,971.857,2015.249,986.213,2028.009z"/>
			<g>
				
					<linearGradient id="SVGID_00000177467891283360404750000013545500826726361777_" gradientUnits="userSpaceOnUse" x1="1462.095" y1="1729.4536" x2="1471.1106" y2="1489.3074" gradientTransform="matrix(0.917 0.3988 -0.3988 0.917 399.6047 -184.8945)">
					<stop  offset="0" style="stop-color:#FFC444"/>
					<stop  offset="0.9964" style="stop-color:#F36F56"/>
				</linearGradient>
				<path style="fill:url(#SVGID_00000177467891283360404750000013545500826726361777_);" d="M1089.142,1796.783
					c0.202,24.033-2.479,43.093-5.016,56.145c-2.905,14.956-5,18.819-7.672,21.955c-4.022,4.719-10.117,8.678-44.555,17.218
					c-18.741,4.646-21.152,4.52-21.566,6.379c-2.018,9.072,49.083,39.993,101.878,32.54c32.312-4.561,61.71-22.995,59.906-32.676
					c-1.817-9.742-34.092-4.515-43.712-22.14c-6.692-12.261,0.809-29.667,9.676-44.083
					C1129.494,1816.031,1097.729,1812.874,1089.142,1796.783z"/>
				<g>
					
						<linearGradient id="SVGID_00000052822031520059834250000000838871005183986333_" gradientUnits="userSpaceOnUse" x1="986.2684" y1="1752.3842" x2="925.1395" y2="1597.1279" gradientTransform="matrix(-1 0.0037 0.0037 1 2039.0248 162.9159)">
						<stop  offset="0" style="stop-color:#311944"/>
						<stop  offset="1" style="stop-color:#6B3976"/>
					</linearGradient>
					<path style="fill:url(#SVGID_00000052822031520059834250000000838871005183986333_);" d="M1149.113,1806.285
						c7.625-10.13,8.095-27.814-0.69-38.993c-7.561-9.619-19.461-10.991-26.584-11.815c-20.642-2.384-46.688,6.234-55.748,25.233
						c-5.368,11.259,6.244,34.653,8.062,38.859c2.06,4.755,5.792,6.387,9.246,9.982c4.786,4.987,12.279,12.916,24.51,26.177
						c0.95-3.913,2.396-8.757,4.691-14.007c0.883-2.021,4.432-9.914,9.802-16.459
						C1133.161,1812.141,1141.884,1815.884,1149.113,1806.285z"/>
					
						<linearGradient id="SVGID_00000041257328275003801950000010768080507053785743_" gradientUnits="userSpaceOnUse" x1="476.2707" y1="1621.4677" x2="473.4597" y2="1847.9542" gradientTransform="matrix(0.9979 -0.0649 0.0649 0.9979 531.9276 219.5886)">
						<stop  offset="0" style="stop-color:#FFC444"/>
						<stop  offset="0.9964" style="stop-color:#F36F56"/>
					</linearGradient>
					<path style="fill:url(#SVGID_00000041257328275003801950000010768080507053785743_);" d="M1090.463,1844.577
						c0,0,13.57,22.263,40.589,20.505c24.191-1.575,27.734-55.824,12.283-67.336c-5.155-3.84-15.479-5.435-23.873-3.083
						c-4.957,1.39-6.637,3.45-14.782,5.562c-7.514,1.95-9.635,1.117-11.904,3.025c-2.836,2.388-4.915,8.241-0.177,24.1
						c-4.616-4.673-10.155-6.466-14.082-4.613c-0.625,0.297-2.286,1.426-3.222,3.139
						C1071.913,1832.071,1077.573,1839.984,1090.463,1844.577z"/>
					
						<linearGradient id="SVGID_00000018233253689296548380000009620032187611986342_" gradientUnits="userSpaceOnUse" x1="967.5943" y1="1759.8185" x2="906.4034" y2="1604.4047" gradientTransform="matrix(-1 0.0037 0.0037 1 2039.0248 162.9159)">
						<stop  offset="0" style="stop-color:#311944"/>
						<stop  offset="1" style="stop-color:#6B3976"/>
					</linearGradient>
					<path style="fill:url(#SVGID_00000018233253689296548380000009620032187611986342_);" d="M1091.682,1800.004
						c1.166,0.87-2.4,5.222-2.665,11.383c-0.518,11.958,11.587,26.312,23.934,27.53c7.3,0.719,9.307-3.681,21.375-4.956
						c7.471-0.789,13.692,0.161,17.604,1.016c3.792,13.115,0.224,26.191-8.542,32.257c-9.437,6.532-21.494,2.569-26.533,0.913
						c-3.372-1.109-14.177-4.638-19.824-14.547c-5.884-10.325-0.11-16.549-6.859-23.533c-3.405-3.523-7.877-5.048-12.231-11.868
						c-1.182-1.853-1.971-3.492-2.454-4.594C1081.728,1806.991,1089.992,1798.745,1091.682,1800.004z"/>
					
						<linearGradient id="SVGID_00000064336407824233945230000002883334943021460622_" gradientUnits="userSpaceOnUse" x1="907.706" y1="1666.1753" x2="910.8884" y2="1694.5455" gradientTransform="matrix(-1 0.0037 0.0037 1 2039.0248 162.9159)">
						<stop  offset="0" style="stop-color:#FFC444"/>
						<stop  offset="1" style="stop-color:#F36F56"/>
					</linearGradient>
					<path style="fill:url(#SVGID_00000064336407824233945230000002883334943021460622_);" d="M1143.148,1839.838
						c0,0-5.225,2.729-14.253,2.222c-0.439-0.026-0.924,0.104-0.979,0.331c-0.208,0.856,5.584,4.697,10.922,3.197
						c3.789-1.066,6.737-4.653,6.227-5.566C1144.848,1839.638,1143.991,1839.688,1143.148,1839.838z"/>
				</g>
			</g>
			<path style="fill:#FFFFFF;" d="M1003.702,2147.438c13.792,29.291-49.589,97.511-120.035,129.905
				c-14.353,6.603-117.426,53.995-163.365,8.423c-37.959-37.66-13.461-115.528-4.715-143.328
				c42.948-136.508,164.475-213.021,219.749-238.065c41.251,103.145,27.32,156.178,17.758,170.53
				c-9.99,14.991-37.868,46.482-67.475,74.224c-20.828,19.511-33.797,29.008-32.052,32.051c2.17,3.789,26.583-3.366,121.405-49.521
				C985.963,2133.438,998.988,2137.437,1003.702,2147.438z"/>
			
				<linearGradient id="SVGID_00000133505913727385603010000009133362867545710501_" gradientUnits="userSpaceOnUse" x1="-2381.6333" y1="2557.2358" x2="-2357.5422" y2="2345.7686" gradientTransform="matrix(-1 0 0 1 -1206.0001 0)">
				<stop  offset="0" style="stop-color:#FF9085"/>
				<stop  offset="1" style="stop-color:#FB6FBB"/>
			</linearGradient>
			<path style="fill:url(#SVGID_00000133505913727385603010000009133362867545710501_);" d="M1238.208,1976.243l-167.84,15.719
				c-3.519,0.329-6.476,2.783-7.449,6.181l-62.634,218.709c-1.658,5.788,3.006,11.439,9.003,10.91l169.22-14.931
				c3.559-0.314,6.551-2.8,7.511-6.241l61.255-219.496C1248.891,1981.298,1244.198,1975.682,1238.208,1976.243z"/>
			
				<linearGradient id="SVGID_00000104677658597005234520000007046972513562570368_" gradientUnits="userSpaceOnUse" x1="-2234.7925" y1="2094.6096" x2="-2149.5994" y2="2615.5991" gradientTransform="matrix(-1 0 0 1 -1206.0001 0)">
				<stop  offset="0" style="stop-color:#FFC444"/>
				<stop  offset="0.9964" style="stop-color:#F36F56"/>
			</linearGradient>
			<path style="fill:url(#SVGID_00000104677658597005234520000007046972513562570368_);" d="M979.753,2140.589
				c0,0,57.801-59.144,81.324-67.88c23.522-8.738,2.696,53.644-11.086,62.443c-13.781,8.798-19.158,12.159-29.913,13.502
				c-10.753,1.346-10.753,1.346-10.753,1.346l-14.115,7.526C995.21,2157.525,977.064,2155.376,979.753,2140.589z"/>
			
				<linearGradient id="SVGID_00000145768038513977772410000007483974196246399393_" gradientUnits="userSpaceOnUse" x1="-2427.3152" y1="2552.0303" x2="-2403.2241" y2="2340.563" gradientTransform="matrix(-1 0 0 1 -1206.0001 0)">
				<stop  offset="0" style="stop-color:#FF9085"/>
				<stop  offset="1" style="stop-color:#FB6FBB"/>
			</linearGradient>
			<path style="opacity:0.3;fill:url(#SVGID_00000145768038513977772410000007483974196246399393_);" d="M1126.495,2165.415
				c6.33-34.573-13.176-61.382,5.517-93.788c19.229-33.336,52.989-27.709,77.237-55.17c7.719-8.741,14.646-21.126,18.049-39.192
				l10.91-1.022c5.99-0.561,10.683,5.055,9.065,10.85l-61.255,219.497c-0.96,3.441-3.952,5.927-7.511,6.241l-85.932,7.583
				C1114.439,2200.792,1123.475,2181.906,1126.495,2165.415z"/>
		</g>
		<g>
			
				<linearGradient id="SVGID_00000080911378988367736170000010117628419452744374_" gradientUnits="userSpaceOnUse" x1="1865.7172" y1="1853.1238" x2="1799.3011" y2="1684.4392" gradientTransform="matrix(-1 0 0 1 4191.5078 0)">
				<stop  offset="0" style="stop-color:#444B8C"/>
				<stop  offset="0.9964" style="stop-color:#3E4177"/>
			</linearGradient>
			<path style="fill:url(#SVGID_00000080911378988367736170000010117628419452744374_);" d="M2339.309,1678.717
				c24.238-3.616,26.769-22.428,46.666-7.597c19.897,14.833,25.285,10.575,23.875,25.323c-1.41,14.748,36.175,4.341,31.472,26.046
				c-4.703,21.705-4.703,35.451-23.875,44.858c-19.172,9.405-10.853,24.598-28.216,20.98c-17.364-3.616-39.069-31.472-39.069-31.472
				c-1.085-0.36-31.835-20.98-26.769-30.387C2317.242,1704.763,2315.071,1682.335,2339.309,1678.717z"/>
			
				<linearGradient id="SVGID_00000132806585746853245100000008135658524156606652_" gradientUnits="userSpaceOnUse" x1="-4028.4954" y1="3135.8782" x2="-3904.9146" y2="3581.8433" gradientTransform="matrix(0.9968 0.0799 -0.0799 0.9968 6453.8516 65.4365)">
				<stop  offset="0" style="stop-color:#AA80F9"/>
				<stop  offset="0.9964" style="stop-color:#6165D7"/>
			</linearGradient>
			<path style="fill:url(#SVGID_00000132806585746853245100000008135658524156606652_);" d="M2288.877,3131.133
				c0,0,3.966,24.281,3.461,32.921c-0.503,8.642-96.396,13.059-97.365,6.585c-0.969-6.474,15.851-16.767,27.688-20.399
				c11.838-3.634,46.485-13.329,46.485-13.329L2288.877,3131.133z"/>
			
				<linearGradient id="SVGID_00000169560031110215985810000016863350308930439573_" gradientUnits="userSpaceOnUse" x1="-3918.5093" y1="3451.1794" x2="-3916.718" y2="3300.7329" gradientTransform="matrix(0.9968 0.0799 -0.0799 0.9968 6453.8516 65.4365)">
				<stop  offset="0" style="stop-color:#AB316D"/>
				<stop  offset="1" style="stop-color:#792D3D"/>
			</linearGradient>
			<path style="fill:url(#SVGID_00000169560031110215985810000016863350308930439573_);" d="M2265.601,3106.927l3.058,30.191
				c0,0,11.139,7.361,20.953,1.679l4.911-32.862L2265.601,3106.927z"/>
			
				<linearGradient id="SVGID_00000010296470824587328090000008302396134217663140_" gradientUnits="userSpaceOnUse" x1="-3873.7759" y1="3092.9963" x2="-3750.1941" y2="3538.9658" gradientTransform="matrix(0.9968 0.0799 -0.0799 0.9968 6453.8516 65.4365)">
				<stop  offset="0" style="stop-color:#AA80F9"/>
				<stop  offset="0.9964" style="stop-color:#6165D7"/>
			</linearGradient>
			<path style="fill:url(#SVGID_00000010296470824587328090000008302396134217663140_);" d="M2459.964,3170.493
				c0,0,3.967,24.28,3.463,32.921c-0.504,8.641-96.397,13.059-97.365,6.585c-0.969-6.473,15.85-16.767,27.688-20.4
				c11.837-3.633,46.485-13.33,46.485-13.33L2459.964,3170.493z"/>
			
				<linearGradient id="SVGID_00000157279040753875593510000010351556853051240353_" gradientUnits="userSpaceOnUse" x1="-3744.5435" y1="3453.2471" x2="-3742.7522" y2="3302.7988" gradientTransform="matrix(0.9968 0.0799 -0.0799 0.9968 6453.8516 65.4365)">
				<stop  offset="0" style="stop-color:#AB316D"/>
				<stop  offset="1" style="stop-color:#792D3D"/>
			</linearGradient>
			<path style="fill:url(#SVGID_00000157279040753875593510000010351556853051240353_);" d="M2436.689,3146.287l3.059,30.191
				c0,0,11.138,7.362,20.953,1.679l4.91-32.862L2436.689,3146.287z"/>
			
				<linearGradient id="SVGID_00000096034348615337312200000005667669175559663036_" gradientUnits="userSpaceOnUse" x1="-815.551" y1="2437.5669" x2="-709.2753" y2="2980.8997" gradientTransform="matrix(1 0 0 1 3092.9233 0)">
				<stop  offset="0" style="stop-color:#311944"/>
				<stop  offset="1" style="stop-color:#893976"/>
			</linearGradient>
			<path style="fill:url(#SVGID_00000096034348615337312200000005667669175559663036_);" d="M2283.002,2318.756
				c-11.084,22.472-22.168,44.943-33.253,67.414c-8.914,128.241-13.344,267.687-10.499,416.816
				c2.116,110.951,8.047,216.056,16.564,314.716c15.028-0.688,30.057-1.382,45.085-2.069
				c21.731-43.13,47.385-108.472,49.746-189.132c2.463-84.136-23.045-95.306-21.427-175.864
				c2.097-104.411,45.88-132.269,69.207-257.86c8.92-48.03,14.927-110.764,7.788-186.874
				C2365.141,2310.185,2324.072,2314.474,2283.002,2318.756z"/>
			
				<linearGradient id="SVGID_00000023278424301967896840000009439013083015857572_" gradientUnits="userSpaceOnUse" x1="-4005.2434" y1="2967.3286" x2="-3845.064" y2="2967.3286" gradientTransform="matrix(0.9968 0.0799 -0.0799 0.9968 6453.8516 65.4365)">
				<stop  offset="0" style="stop-color:#311944"/>
				<stop  offset="1" style="stop-color:#893976"/>
			</linearGradient>
			<path style="opacity:0.3;fill:url(#SVGID_00000023278424301967896840000009439013083015857572_);" d="M2406.212,2305.902
				c-22.18,2.313-44.36,4.626-66.542,6.944c-39.926,69.48-51.074,141.799-44.067,173.786c9.912,45.259,36.133,59.756,34.692,105.196
				c-1.426,44.961-27.916,56.62-44.72,109.613c-11.632,36.69-8.563,70.425-1.945,136.397
				c13.327,132.889,45.417,173.528,18.538,217.098c-7.638,12.379-21.399,27.123-48.361,38.379c0.66,8.149,1.31,16.324,2.006,24.386
				c15.028-0.686,30.057-1.382,45.085-2.067c21.732-43.135,47.385-108.473,49.746-189.134
				c2.463-84.136-23.045-95.309-21.427-175.865c2.097-104.411,45.88-132.266,69.206-257.858
				C2407.344,2444.746,2413.35,2382.013,2406.212,2305.902z"/>
			
				<linearGradient id="SVGID_00000178906359255039403620000007033659714401332370_" gradientUnits="userSpaceOnUse" x1="-3914.8127" y1="2990.2095" x2="-3671.6453" y2="2990.2095" gradientTransform="matrix(0.9968 0.0799 -0.0799 0.9968 6453.8516 65.4365)">
				<stop  offset="0" style="stop-color:#311944"/>
				<stop  offset="1" style="stop-color:#893976"/>
			</linearGradient>
			<path style="fill:url(#SVGID_00000178906359255039403620000007033659714401332370_);" d="M2342.633,2359.211
				c20.806,113.458,39.184,234.887,53.524,363.666c17.313,155.491,26.553,302.08,30.187,438.182
				c16.495,0.469,32.99,0.933,49.485,1.402c64.999-128.586,68.97-215.765,59.598-272.525c-3.611-21.872-13.42-64.759-15.659-128.854
				c-1.56-44.679,1.29-78.682,4.851-119.556c7.805-89.62,17.279-109.184,18.64-177.734c1.28-64.333,1.543-96.886-16.822-115.887
				C2478.053,2297.847,2352.182,2354.781,2342.633,2359.211z"/>
			
				<linearGradient id="SVGID_00000067219100521222131170000017804346369604070562_" gradientUnits="userSpaceOnUse" x1="-4362.8691" y1="2142.4766" x2="-4226.6382" y2="2281.1406" gradientTransform="matrix(0.9968 0.0799 -0.0799 0.9968 6453.8516 65.4365)">
				<stop  offset="0" style="stop-color:#AB316D"/>
				<stop  offset="1" style="stop-color:#792D3D"/>
			</linearGradient>
			<path style="fill:url(#SVGID_00000067219100521222131170000017804346369604070562_);" d="M1972.998,1871.866
				c-4.752-6.269-11.933-16.275-12.284-21.701c-0.353-5.427-7.967,2.027-2.578,14.166c1.62,3.65,1.32,5.059,0.46,6.154
				c-2.456,3.132-10.881-3.527-16.677-0.379c-5.801,3.149-7.966,15.572-2.807,21.684c3.809,4.513,9.664,1.213,16.392,4.427
				c5.392,2.576,4.053,9.068,6.644,25.639c5.357-0.255,17.321,8.806,19.313,3.827
				C1989.113,1906.55,1977.75,1878.136,1972.998,1871.866z"/>
			
				<linearGradient id="SVGID_00000145767291632492734690000016428536775514925463_" gradientUnits="userSpaceOnUse" x1="-971.7302" y1="1933.2561" x2="-792.3999" y2="3084.9578" gradientTransform="matrix(1 0 0 1 3092.9233 0)">
				<stop  offset="0" style="stop-color:#FFC444"/>
				<stop  offset="0.9964" style="stop-color:#F36F56"/>
			</linearGradient>
			<path style="fill:url(#SVGID_00000145767291632492734690000016428536775514925463_);" d="M1985.883,1914.992
				c-10.97-0.765-21.939-1.531-32.909-2.296c-25.879,104.575-7.317,206.019,51.092,243.326
				c91.255,58.287,260.849-51.529,297.601-171.103c16.132-52.484,12.459-128.228-19.782-142.945
				c-8.949-4.086-22.836-4.72-52.923,12.172c-89.852,50.447-92.213,145.791-137.891,153.866
				C2070.762,2011.602,2037.966,1998.653,1985.883,1914.992z"/>
			
				<linearGradient id="SVGID_00000122701960983382802690000001762468384425838506_" gradientUnits="userSpaceOnUse" x1="-3688.3855" y1="3437.6843" x2="-3509.0554" y2="4589.3853" gradientTransform="matrix(0.9968 0.0799 -0.0799 0.9968 6453.8516 65.4365)">
				<stop  offset="0" style="stop-color:#FFC444"/>
				<stop  offset="0.9964" style="stop-color:#F36F56"/>
			</linearGradient>
			<path style="fill:url(#SVGID_00000122701960983382802690000001762468384425838506_);" d="M2237.125,2409.177
				c-15.804-26.223,4.046-51.515,8.565-101.199c5.121-56.309-16.571-65.686-38.024-159.003
				c-14.266-62.063-27.961-121.643-11.615-191.386c7.834-33.425,21.121-90.117,68.039-117.5
				c24.212-14.131,57.271-12.718,122.399-9.31c80.539,4.211,120.808,6.316,150.84,22.131c4.396,2.316,95.761,52.012,102.05,133.018
				c6.402,82.446-83.387,93.528-95.362,203.475c-5.376,49.356,4.207,125.268,10.421,174.504
				c5.967,47.276,10.073,59.381,0.744,73.693c-22.486,34.499-91.327,24.665-229.011,5.005
				C2272.163,2434.893,2248.918,2428.746,2237.125,2409.177z"/>
			
				<linearGradient id="SVGID_00000070104466415342842630000012712929167204750521_" gradientUnits="userSpaceOnUse" x1="-3426.1082" y1="3019.0703" x2="-3968.8022" y2="2239.9546" gradientTransform="matrix(0.9968 0.0799 -0.0799 0.9968 6453.8516 65.4365)">
				<stop  offset="0" style="stop-color:#FFC444"/>
				<stop  offset="0.9964" style="stop-color:#F36F56"/>
			</linearGradient>
			<path style="opacity:0.3;fill:url(#SVGID_00000070104466415342842630000012712929167204750521_);" d="M2446.611,2171.718
				c5.822,21.429,26.76,37.435,41.335,89.558c3.146,11.255,25.559,91.394-3.513,111.121c-16.794,11.392-31.868-10.193-72.624-13.011
				c-70.624-4.885-104.268,54.471-150.402,38.262c-8.004-2.816-18.572-8.811-29.122-22.59c-2.101,12.416-1.74,23.199,4.839,34.119
				c11.793,19.569,35.038,25.716,89.046,33.429c137.684,19.66,206.525,29.494,229.011-5.005c9.33-14.313,5.223-26.417-0.744-73.693
				c-6.214-49.237-15.797-125.148-10.421-174.504c11.975-109.947,101.764-121.029,95.362-203.475
				c-1.711-22.041-9.819-41.667-20.661-58.749C2504.816,1973.271,2428.312,2104.379,2446.611,2171.718z"/>
			
				<linearGradient id="SVGID_00000031189993397074174260000013977173941788240564_" gradientUnits="userSpaceOnUse" x1="-465.1342" y1="2234.145" x2="-566.0961" y2="2370.5317" gradientTransform="matrix(1 0 0 1 3092.9233 0)">
				<stop  offset="0" style="stop-color:#AB316D"/>
				<stop  offset="1" style="stop-color:#792D3D"/>
			</linearGradient>
			<path style="fill:url(#SVGID_00000031189993397074174260000013977173941788240564_);" d="M2590.476,2333.896l-22.789,14.551
				c-4.092-4.725-13.565-14.257-28.356-17.512c-16.665-3.662-35.794,1.591-36.239,6.909c-0.357,4.261,11.292,8.558,13.092,9.224
				c14.54,5.365,25.328,0.909,31.206,6.754c2.079,2.067,4.67,5.911,10.628,9.473c1.564,0.936,3.205,1.762,4.069,2.1
				c9.704,3.773,26.351-13.121,27.783-14.597L2590.476,2333.896z"/>
			
				<linearGradient id="SVGID_00000031902943109780788960000013320405571124449983_" gradientUnits="userSpaceOnUse" x1="-3478.4119" y1="3404.991" x2="-3299.0813" y2="4556.6943" gradientTransform="matrix(0.9968 0.0799 -0.0799 0.9968 6453.8516 65.4365)">
				<stop  offset="0" style="stop-color:#FFC444"/>
				<stop  offset="0.9964" style="stop-color:#F36F56"/>
			</linearGradient>
			<path style="fill:url(#SVGID_00000031902943109780788960000013320405571124449983_);" d="M2523.148,2035.007
				c-16.486-39.484-27.907-99.935-1.869-189.711c171.57,67.605,259.071,227.871,224.905,354.918
				c-28.164,104.734-130.632,155.748-153.489,166.48c-5.318-12.106-10.638-24.208-15.956-36.315
				c26.489-29.498,56.339-73.114,52.117-122.885C2623.006,2138.493,2556.524,2114.943,2523.148,2035.007z"/>
			
				<linearGradient id="SVGID_00000060743628130684247450000007201819674391630253_" gradientUnits="userSpaceOnUse" x1="-4999.6938" y1="5650.2759" x2="-4999.6938" y2="5495.1357" gradientTransform="matrix(0.7795 0.6265 -0.6265 0.7795 9778.2344 622.2045)">
				<stop  offset="0" style="stop-color:#AB316D"/>
				<stop  offset="1" style="stop-color:#792D3D"/>
			</linearGradient>
			<path style="fill:url(#SVGID_00000060743628130684247450000007201819674391630253_);" d="M2390.706,1749.554
				c0,0,1.355,30.013,10.672,52.489c8.419,20.313,52.703,33.083,61.678,37.617c8.978,4.534-16.817,17.788-42.72,20.393
				c-25.902,2.605-99.876-3.277-113.21-13.097c-13.335-9.819,10.715-9.08,29.205-15.869c18.488-6.786,29.178-42.945,25.915-59.357
				C2358.982,1755.317,2390.706,1749.554,2390.706,1749.554z"/>
			<g>
				
					<linearGradient id="SVGID_00000154419649517236422060000000125338971262026162_" gradientUnits="userSpaceOnUse" x1="-5109.356" y1="5605.5659" x2="-5036.8223" y2="5464.5283" gradientTransform="matrix(0.7795 0.6265 -0.6265 0.7795 9778.2344 622.2045)">
					<stop  offset="0" style="stop-color:#AB316D"/>
					<stop  offset="1" style="stop-color:#792D3D"/>
				</linearGradient>
				<path style="fill:url(#SVGID_00000154419649517236422060000000125338971262026162_);" d="M2386.343,1774.427
					c0,0-14.287,16.177-36.051,10.829c-19.486-4.787-14.514-49.511-0.254-56.656c4.757-2.382,13.401-2.185,19.902,0.947
					c3.841,1.851,4.908,3.773,11.241,6.676c5.841,2.675,7.693,2.305,9.263,4.19c1.966,2.356,2.812,7.427-3.347,19.667
					c4.439-3.141,9.213-3.799,12.143-1.721c0.467,0.333,1.658,1.494,2.171,3.025
					C2403.269,1766.923,2397.512,1772.552,2386.343,1774.427z"/>
			</g>
		</g>
		<g>
			<g>
				
					<linearGradient id="SVGID_00000124846207114641039770000004265895453331245743_" gradientUnits="userSpaceOnUse" x1="1603.7898" y1="477.5245" x2="1339.4059" y2="731.6413">
					<stop  offset="0" style="stop-color:#FFC444"/>
					<stop  offset="0.9964" style="stop-color:#F36F56"/>
				</linearGradient>
				<path style="fill:url(#SVGID_00000124846207114641039770000004265895453331245743_);" d="M1076.262,1665.753
					c-23.323,0.675-46.071-5.203-65.776-17.012c-60.034-35.988-148.741-95.418-228.548-173.215
					c-101.268-98.72-159.451-199.068-172.182-297.606l-0.199-1.544l-2.471-420.46c0-83.096,54.199-150.547,155.956-194.87
					c84.072-36.618,195.501-54.763,313.22-51.355c116.348,3.368,224.009,27.374,303.695,67.374
					c94.724,47.551,144.426,114.374,144.426,193.6l-2.253,401.753l-0.183,1.477c-11.634,94.36-65.167,191.896-159.786,290.528
					c-75.893,79.108-161.654,141.801-220.552,180.645C1122.124,1657.921,1099.532,1665.08,1076.262,1665.753z"/>
				
					<linearGradient id="SVGID_00000025407337535262862930000015146462422445620867_" gradientUnits="userSpaceOnUse" x1="817.9981" y1="535.4285" x2="1716.7029" y2="2005.3192">
					<stop  offset="0" style="stop-color:#FFC444"/>
					<stop  offset="0.9964" style="stop-color:#F36F56"/>
				</linearGradient>
				<path style="fill:url(#SVGID_00000025407337535262862930000015146462422445620867_);" d="M1099.351,1665.753
					c-23.014,0.675-45.463-5.203-64.907-17.012c-59.241-35.988-146.776-95.418-225.529-173.215
					c-99.929-98.72-157.345-199.068-169.906-297.606l-0.198-1.544l-2.438-420.46c0-83.096,53.483-150.547,153.895-194.87
					c82.961-36.618,192.918-54.763,309.082-51.355c114.811,3.368,221.049,27.374,299.682,67.374
					c93.474,47.551,142.518,114.374,142.518,193.6l-2.224,401.753l-0.18,1.477c-11.479,94.36-64.306,191.896-157.675,290.528
					c-74.891,79.108-159.518,141.801-217.638,180.645C1144.607,1657.921,1122.313,1665.08,1099.351,1665.753z"/>
				
					<linearGradient id="SVGID_00000122718560776187400980000015476783554832337063_" gradientUnits="userSpaceOnUse" x1="1294.5465" y1="1372.3258" x2="564.6677" y2="-95.3099">
					<stop  offset="0" style="stop-color:#FFC444"/>
					<stop  offset="0.9964" style="stop-color:#F36F56"/>
				</linearGradient>
				<path style="fill:url(#SVGID_00000122718560776187400980000015476783554832337063_);" d="M664.136,756.218l2.454,418.336
					c27.537,213.446,278.384,386.258,387.637,451.915c31.297,18.808,71.311,17.693,102.387-2.755
					c106.972-70.39,344.08-247.597,369.414-452.816l2.25-400.646C1528.278,473.007,664.136,445.833,664.136,756.218z"/>
				
					<linearGradient id="SVGID_00000041980115656714385570000009539458456395065729_" gradientUnits="userSpaceOnUse" x1="746.9675" y1="1087.6069" x2="1451.7039" y2="1087.6069">
					<stop  offset="0" style="stop-color:#311944"/>
					<stop  offset="1" style="stop-color:#893976"/>
				</linearGradient>
				<path style="fill:url(#SVGID_00000041980115656714385570000009539458456395065729_);" d="M1105.551,1561.987
					c-2.002,0.047-5.033-0.286-8.095-2.143c-44.984-27.241-132.185-84.299-208.046-158.814
					c-81.941-80.491-129.201-158.747-140.038-232.245l-2.404-411.409c0.1-39.475,31.348-73.259,92.6-100.291
					c68.378-30.179,165.485-46.014,265.984-43.627c99.497,2.362,193.77,22.391,259.081,54.8
					c57.771,28.666,86.978,62.46,87.071,100.57l-2.24,397.165c-10.115,71.124-54.471,147.799-132.349,228.399
					c-73.226,75.784-158.765,135.86-203.474,165.073C1110.581,1561.463,1107.553,1561.94,1105.551,1561.987z"/>
				<path style="fill:#F4F7FA;" d="M1095.286,1533.866c-45.429-27.98-126.211-82.008-196.693-151.371
					c-77.006-75.786-121.569-148.51-132.046-215.802l-2.385-409.02c0.071-28.224,26.015-54.113,76.913-76.649
					c64.775-28.682,157.581-43.795,254.209-41.626c95.701,2.149,185.906,21.051,247.896,51.722
					c48.165,23.83,72.531,49.826,72.598,77.352l-2.235,395.704c-9.829,65.288-51.862,136.691-125.366,212.624
					C1219.933,1447.301,1140.509,1503.99,1095.286,1533.866z"/>
			</g>
			<g>
				<g>
					
						<linearGradient id="SVGID_00000102538970588986653700000000791584337712787078_" gradientUnits="userSpaceOnUse" x1="1307.9602" y1="340.317" x2="455.8097" y2="3027.8726">
						<stop  offset="0" style="stop-color:#FF9085"/>
						<stop  offset="1" style="stop-color:#FB6FBB"/>
					</linearGradient>
					<path style="fill:url(#SVGID_00000102538970588986653700000000791584337712787078_);" d="M1345.057,1031.133
						c-4.254-79.821-58.497-146.884-126.051-155.374c-53.729-6.752-101.536,23.619-126.984,72.756
						c-25.509-51.554-73.759-86.705-128.504-85.213c-69.623,1.898-126.176,65.113-130.636,146.459
						c-2.947,53.752,16.56,103.155,48.584,136.459l196.53,160.075c8.489,6.914,19.559,7.226,28.033,0.797l192.501-146.051
						C1329.244,1130.675,1347.866,1083.842,1345.057,1031.133z"/>
				</g>
				<g>
					<path style="fill:#FFFFFF;" d="M1194.288,1065.544c0-5.346-2.529-8.203-8.572-8.203H1006.99
						c-6.043,0-14.493,2.857-14.493,8.203v64.532c0,5.346,8.45,10.765,14.493,10.765h178.725c6.043,0,8.572-5.419,8.572-10.765
						V1065.544z"/>
					<path style="fill:#FFFFFF;" d="M1128.618,1199.986c5.346,0,10.004-6.769,10.004-12.813v-178.725
						c0-6.043-4.658-6.774-10.004-6.774h-64.532c-5.346,0-12.443,0.73-12.443,6.774v178.725c0,6.043,7.097,12.813,12.443,12.813
						H1128.618z"/>
				</g>
			</g>
		</g>
	</g>
</g>
</svg>
